<svg width="42" height="65" viewBox="0 0 42 65" fill="none" xmlns="http://www.w3.org/2000/svg">
<path d="M20.8292 0.509277C16.8507 0.514266 12.9619 1.6922 9.64936 3.89574C6.33678 6.09929 3.74743 9.23062 2.20518 12.8981C0.662932 16.5656 0.236252 20.6063 0.978509 24.515C1.72077 28.4237 3.59901 32.0268 6.37831 34.8736V61.2032C6.3798 61.6959 6.50721 62.18 6.74844 62.6096C6.98966 63.0392 7.3367 63.4 7.75659 63.6577C8.17648 63.9154 8.65528 64.0615 9.14752 64.0821C9.63977 64.1027 10.1291 63.9972 10.5691 63.7755L20.8292 58.6599L31.0894 63.7755C31.4921 63.9818 31.9376 64.0907 32.39 64.0934C32.9311 64.0951 33.4619 63.9449 33.9218 63.6599C34.3383 63.3996 34.6816 63.0374 34.9193 62.6075C35.157 62.1777 35.2812 61.6944 35.2802 61.2032V34.8736C38.0595 32.0268 39.9377 28.4237 40.68 24.515C41.4222 20.6063 40.9956 16.5656 39.4533 12.8981C37.9111 9.23062 35.3217 6.09929 32.0091 3.89574C28.6966 1.6922 24.8078 0.514266 20.8292 0.509277ZM29.4998 56.5211L22.1298 52.8506C21.7264 52.6473 21.281 52.5414 20.8292 52.5414C20.3775 52.5414 19.9321 52.6473 19.5287 52.8506L12.1587 56.5211V39.0066C13.9879 39.8704 15.9364 40.4549 17.9391 40.7407V43.8621C17.9391 44.6286 18.2436 45.3638 18.7856 45.9058C19.3276 46.4478 20.0627 46.7523 20.8292 46.7523C21.5958 46.7523 22.3309 46.4478 22.8729 45.9058C23.4149 45.3638 23.7194 44.6286 23.7194 43.8621V40.7407C25.7221 40.4549 27.6706 39.8704 29.4998 39.0066V56.5211ZM20.8292 35.1915C17.9711 35.1915 15.1772 34.344 12.8007 32.7561C10.4243 31.1682 8.57208 28.9113 7.47832 26.2707C6.38456 23.6302 6.09839 20.7246 6.65598 17.9214C7.21357 15.1181 8.58989 12.5432 10.6109 10.5222C12.6319 8.50123 15.2068 7.12492 18.01 6.56732C20.8132 6.00973 23.7188 6.29591 26.3594 7.38967C28.9999 8.48342 31.2569 10.3356 32.8448 12.7121C34.4327 15.0885 35.2802 17.8825 35.2802 20.7406C35.2802 24.5732 33.7577 28.2489 31.0476 30.9589C28.3375 33.669 24.6619 35.1915 20.8292 35.1915Z" fill="#2ACAE0"/>
<path d="M20.3536 12.6593C20.5033 12.1987 21.155 12.1987 21.3047 12.6593L23.0608 18.0642C23.1278 18.2702 23.3197 18.4097 23.5363 18.4097H29.2194C29.7038 18.4097 29.9051 19.0295 29.5133 19.3142L24.9156 22.6546C24.7404 22.782 24.667 23.0077 24.734 23.2137L26.4901 28.6186C26.6398 29.0792 26.1126 29.4623 25.7207 29.1776L21.123 25.8372C20.9478 25.7099 20.7105 25.7099 20.5352 25.8372L15.9375 29.1776C15.5457 29.4623 15.0184 29.0792 15.1681 28.6186L16.9243 23.2137C16.9912 23.0077 16.9179 22.782 16.7426 22.6546L12.145 19.3142C11.7531 19.0295 11.9545 18.4097 12.4389 18.4097H18.1219C18.3385 18.4097 18.5305 18.2702 18.5974 18.0642L20.3536 12.6593Z" fill="#2ACAE0"/>
</svg>
