<svg width="46" height="46" viewBox="0 0 46 46" fill="none" xmlns="http://www.w3.org/2000/svg">
<path d="M27.6 16.1C27.1451 16.1 26.7004 16.2349 26.3222 16.4876C25.944 16.7403 25.6492 17.0996 25.4751 17.5198C25.301 17.9401 25.2555 18.4025 25.3442 18.8487C25.4329 19.2949 25.652 19.7047 25.9737 20.0263C26.2953 20.348 26.7051 20.5671 27.1513 20.6558C27.5975 20.7445 28.0599 20.699 28.4802 20.5249C28.9004 20.3508 29.2597 20.056 29.5124 19.6778C29.7651 19.2996 29.9 18.8549 29.9 18.4C29.9 17.79 29.6577 17.205 29.2263 16.7736C28.795 16.3423 28.21 16.1 27.6 16.1ZM27.6 9.2C27.1451 9.2 26.7004 9.33489 26.3222 9.58762C25.944 9.84034 25.6492 10.1996 25.4751 10.6198C25.301 11.0401 25.2555 11.5025 25.3442 11.9487C25.4329 12.3949 25.652 12.8047 25.9737 13.1263C26.2953 13.448 26.7051 13.6671 27.1513 13.7558C27.5975 13.8445 28.0599 13.799 28.4802 13.6249C28.9004 13.4508 29.2597 13.156 29.5124 12.7778C29.7651 12.3996 29.9 11.9549 29.9 11.5C29.9 10.89 29.6577 10.305 29.2263 9.87365C28.795 9.44232 28.21 9.2 27.6 9.2ZM23 0C18.451 0 14.0042 1.34893 10.2219 3.8762C6.43956 6.40347 3.4916 9.99558 1.75078 14.1983C0.00996553 18.401 -0.445511 23.0255 0.441949 27.4871C1.32941 31.9486 3.51995 36.0468 6.73655 39.2634C9.95316 42.48 14.0514 44.6706 18.5129 45.558C22.9745 46.4455 27.599 45.99 31.8017 44.2492C36.0044 42.5084 39.5965 39.5604 42.1238 35.7781C44.6511 31.9958 46 27.549 46 23C46 19.9796 45.4051 16.9888 44.2492 14.1983C43.0934 11.4078 41.3992 8.87229 39.2635 6.73654C37.1277 4.6008 34.5922 2.90663 31.8017 1.75077C29.0112 0.594912 26.0204 0 23 0ZM23 41.4C19.3608 41.4 15.8034 40.3208 12.7775 38.299C9.75165 36.2772 7.39328 33.4035 6.00063 30.0414C4.60797 26.6792 4.24359 22.9796 4.95356 19.4103C5.66353 15.8411 7.41596 12.5625 9.98924 9.98923C12.5625 7.41595 15.8411 5.66352 19.4103 4.95355C22.9796 4.24358 26.6792 4.60796 30.0414 6.00062C33.4035 7.39327 36.2772 9.75164 38.299 12.7775C40.3209 15.8034 41.4 19.3608 41.4 23C41.4 27.88 39.4614 32.5601 36.0108 36.0108C32.5601 39.4614 27.88 41.4 23 41.4ZM34.5 13.8C34.0451 13.8 33.6004 13.9349 33.2222 14.1876C32.844 14.4403 32.5492 14.7996 32.3751 15.2198C32.201 15.6401 32.1555 16.1025 32.2442 16.5487C32.3329 16.9949 32.552 17.4047 32.8737 17.7263C33.1953 18.048 33.6051 18.2671 34.0513 18.3558C34.4974 18.4445 34.9599 18.399 35.3802 18.2249C35.8004 18.0508 36.1597 17.756 36.4124 17.3778C36.6651 16.9996 36.8 16.5549 36.8 16.1C36.8 15.49 36.5577 14.905 36.1264 14.4736C35.695 14.0423 35.11 13.8 34.5 13.8Z" fill="black"/>
</svg>
