<svg width="64" height="65" viewBox="0 0 64 65" fill="none" xmlns="http://www.w3.org/2000/svg">
<path d="M39.5596 39.7478C37.4345 41.4612 34.7869 42.3956 32.0572 42.3956C29.3274 42.3956 26.6798 41.4612 24.5547 39.7478C23.9055 39.2082 23.0685 38.9486 22.2279 39.0261C21.3873 39.1036 20.6119 39.5119 20.0723 40.1611C19.5327 40.8103 19.2731 41.6473 19.3506 42.4879C19.4281 43.3285 19.8364 44.1039 20.4856 44.6435C23.7324 47.3539 27.8277 48.8386 32.0572 48.8386C36.2866 48.8386 40.3819 47.3539 43.6287 44.6435C44.2779 44.1039 44.6862 43.3285 44.7637 42.4879C44.8412 41.6473 44.5816 40.8103 44.042 40.1611C43.7748 39.8396 43.4469 39.5739 43.0771 39.3792C42.7072 39.1845 42.3026 39.0645 41.8864 39.0261C41.0458 38.9486 40.2088 39.2082 39.5596 39.7478ZM23.1877 28.0173C23.7834 28.6094 24.5891 28.9417 25.4289 28.9417C26.2688 28.9417 27.0745 28.6094 27.6701 28.0173C28.2622 27.4217 28.5946 26.616 28.5946 25.7761C28.5946 24.9363 28.2622 24.1305 27.6701 23.5349C25.8509 21.8087 23.4386 20.8464 20.9307 20.8464C18.4228 20.8464 16.0105 21.8087 14.1912 23.5349C13.8584 23.8199 13.5881 24.1706 13.3973 24.565C13.2065 24.9594 13.0993 25.389 13.0824 25.8268C13.0654 26.2646 13.1392 26.7012 13.299 27.1091C13.4589 27.5171 13.7013 27.8876 14.0111 28.1974C14.3209 28.5072 14.6914 28.7496 15.0993 28.9095C15.5073 29.0693 15.9439 29.143 16.3817 29.1261C16.8195 29.1092 17.2491 29.002 17.6435 28.8112C18.0379 28.6204 18.3886 28.3501 18.6736 28.0173C18.9691 27.7193 19.3207 27.4828 19.7081 27.3215C20.0955 27.1601 20.511 27.077 20.9307 27.077C21.3503 27.077 21.7658 27.1601 22.1532 27.3215C22.5406 27.4828 22.8922 27.7193 23.1877 28.0173ZM49.9231 23.5349C48.1039 21.8087 45.6916 20.8464 43.1837 20.8464C40.6758 20.8464 38.2635 21.8087 36.4442 23.5349C35.9234 24.1431 35.6512 24.9253 35.6821 25.7254C35.713 26.5255 36.0447 27.2844 36.6109 27.8506C37.177 28.4168 37.936 28.7484 38.7361 28.7793C39.5361 28.8103 40.3184 28.5381 40.9266 28.0173C41.2221 27.7193 41.5737 27.4828 41.9611 27.3215C42.3485 27.1601 42.764 27.077 43.1837 27.077C43.6033 27.077 44.0188 27.1601 44.4062 27.3215C44.7936 27.4828 45.1452 27.7193 45.4407 28.0173C46.0364 28.6094 46.8421 28.9417 47.6819 28.9417C48.5218 28.9417 49.3275 28.6094 49.9231 28.0173C50.5152 27.4217 50.8476 26.616 50.8476 25.7761C50.8476 24.9363 50.5152 24.1305 49.9231 23.5349ZM32.0572 0.868652C25.7697 0.868652 19.6234 2.7331 14.3956 6.22623C9.16775 9.71936 5.09314 14.6843 2.68703 20.4931C0.280925 26.302 -0.348623 32.6939 0.878001 38.8606C2.10463 45.0272 5.13233 50.6917 9.57824 55.1376C14.0241 59.5835 19.6886 62.6112 25.8552 63.8378C32.0219 65.0644 38.4138 64.4349 44.2227 62.0288C50.0315 59.6227 54.9964 55.5481 58.4896 50.3202C61.9827 45.0924 63.8472 38.9461 63.8472 32.6586C63.8472 28.4839 63.0249 24.3501 61.4273 20.4931C59.8297 16.6362 57.4881 13.1317 54.5361 10.1797C51.5841 7.22775 48.0796 4.88612 44.2227 3.28852C40.3657 1.69093 36.2319 0.868652 32.0572 0.868652ZM32.0572 58.0906C27.0272 58.0906 22.1102 56.5991 17.9279 53.8046C13.7456 51.0101 10.4859 47.0381 8.56106 42.391C6.63617 37.744 6.13253 32.6304 7.11383 27.6971C8.09513 22.7638 10.5173 18.2322 14.074 14.6755C17.6308 11.1188 22.1623 8.69662 27.0956 7.71532C32.0289 6.73402 37.1425 7.23766 41.7896 9.16255C46.4367 11.0874 50.4086 14.3471 53.2031 18.5294C55.9976 22.7117 57.4892 27.6287 57.4892 32.6586C57.4892 39.4036 54.8097 45.8724 50.0403 50.6418C45.2709 55.4112 38.8021 58.0906 32.0572 58.0906Z" fill="#DE71E8"/>
</svg>
