<svg width="23" height="23" viewBox="0 0 23 23" fill="none" xmlns="http://www.w3.org/2000/svg">
<path d="M11.9639 0.990723C9.78828 0.990723 7.66154 1.63586 5.8526 2.84456C4.04366 4.05325 2.63376 5.77122 1.8012 7.7812C0.968633 9.79119 0.750797 12.0029 1.17523 14.1367C1.59967 16.2705 2.64732 18.2305 4.1857 19.7689C5.72407 21.3073 7.68409 22.3549 9.81788 22.7794C11.9517 23.2038 14.1634 22.986 16.1734 22.1534C18.1834 21.3208 19.9013 19.9109 21.11 18.102C22.3187 16.293 22.9639 14.1663 22.9639 11.9907C22.9639 10.5462 22.6793 9.11578 22.1265 7.7812C21.5737 6.44662 20.7635 5.23399 19.742 4.21255C18.7206 3.1911 17.508 2.38085 16.1734 1.82805C14.8388 1.27525 13.4084 0.990723 11.9639 0.990723ZM11.9639 3.19072C14.2241 3.18982 16.3966 4.06515 18.0249 5.63272C16.3441 6.61854 14.563 7.42242 12.7119 8.03072C11.7906 6.44323 10.7344 4.938 9.55487 3.53172C10.338 3.30622 11.1489 3.19144 11.9639 3.19072ZM7.44287 4.45572C8.59532 5.77408 9.62964 7.1912 10.5339 8.69072C8.37468 9.22686 6.15862 9.50018 3.93387 9.50472H3.53787C4.16179 7.39232 5.5552 5.59071 7.44287 4.45572ZM5.36387 17.8317C3.9325 16.2243 3.14856 14.143 3.16387 11.9907C3.16387 11.8807 3.16387 11.7707 3.16387 11.6717H3.91187C6.51598 11.6484 9.1054 11.2785 11.6119 10.5717C11.9639 11.2427 12.2939 11.9357 12.6129 12.6507C10.8985 13.2551 9.30188 14.152 7.89387 15.3017L7.56387 15.5657C6.7797 16.27 6.04465 17.0271 5.36387 17.8317ZM11.9639 20.7907C10.2106 20.7946 8.49689 20.2694 7.04687 19.2837C7.5824 18.6695 8.15549 18.089 8.76287 17.5457L9.11487 17.2487C10.4163 16.1541 11.9077 15.3077 13.5149 14.7517C14.1763 16.5403 14.6914 18.3797 15.0549 20.2517C14.0647 20.6133 13.018 20.7958 11.9639 20.7907ZM17.0569 19.1517C16.697 17.4869 16.2266 15.848 15.6489 14.2457H16.0229C16.0662 14.235 16.1115 14.235 16.1549 14.2457H16.2759H16.3859H16.9139C18.0715 14.249 19.2203 14.4461 20.3129 14.8287C19.7126 16.5781 18.5725 18.0918 17.0569 19.1517ZM16.9139 11.9907C16.6829 11.9907 16.4519 11.9907 16.2319 11.9907C16.0894 11.9728 15.9453 11.9728 15.8029 11.9907C15.5039 12.0091 15.2063 12.0458 14.9119 12.1007H14.8019C14.4829 11.3637 14.1529 10.6487 13.7899 9.90072C15.7596 9.22428 17.6513 8.33926 19.4329 7.26072C20.3166 8.67903 20.7783 10.3197 20.7639 11.9907C20.7639 12.1777 20.7639 12.3647 20.7639 12.5517C19.5172 12.167 18.2185 11.9777 16.9139 11.9907Z" fill="white"/>
</svg>
