<svg width="58" height="65" viewBox="0 0 58 65" fill="none" xmlns="http://www.w3.org/2000/svg">
<path d="M28.9428 52.8882C29.5144 52.8882 30.0732 52.7187 30.5484 52.4011C31.0237 52.0836 31.3941 51.6322 31.6129 51.1041C31.8316 50.576 31.8888 49.995 31.7773 49.4344C31.6658 48.8737 31.3906 48.3588 30.9864 47.9546C30.5822 47.5504 30.0673 47.2752 29.5067 47.1637C28.9461 47.0522 28.365 47.1094 27.8369 47.3282C27.3088 47.5469 26.8575 47.9173 26.5399 48.3926C26.2223 48.8678 26.0528 49.4266 26.0528 49.9982C26.0528 50.7646 26.3573 51.4997 26.8993 52.0417C27.4413 52.5837 28.1764 52.8882 28.9428 52.8882ZM43.3928 52.8882C43.9644 52.8882 44.5232 52.7187 44.9984 52.4011C45.4737 52.0836 45.8441 51.6322 46.0629 51.1041C46.2816 50.576 46.3388 49.995 46.2273 49.4344C46.1158 48.8737 45.8406 48.3588 45.4364 47.9546C45.0322 47.5504 44.5173 47.2752 43.9567 47.1637C43.3961 47.0522 42.815 47.1094 42.2869 47.3282C41.7588 47.5469 41.3075 47.9173 40.9899 48.3926C40.6723 48.8678 40.5028 49.4266 40.5028 49.9982C40.5028 50.7646 40.8073 51.4997 41.3493 52.0417C41.8913 52.5837 42.6264 52.8882 43.3928 52.8882ZM43.3928 41.3282C43.9644 41.3282 44.5232 41.1587 44.9984 40.8411C45.4737 40.5236 45.8441 40.0722 46.0629 39.5441C46.2816 39.016 46.3388 38.435 46.2273 37.8744C46.1158 37.3138 45.8406 36.7988 45.4364 36.3946C45.0322 35.9905 44.5173 35.7152 43.9567 35.6037C43.3961 35.4922 42.815 35.5494 42.2869 35.7682C41.7588 35.9869 41.3075 36.3573 40.9899 36.8326C40.6723 37.3078 40.5028 37.8666 40.5028 38.4382C40.5028 39.2046 40.8073 39.9397 41.3493 40.4817C41.8913 41.0237 42.6264 41.3282 43.3928 41.3282ZM28.9428 41.3282C29.5144 41.3282 30.0732 41.1587 30.5484 40.8411C31.0237 40.5236 31.3941 40.0722 31.6129 39.5441C31.8316 39.016 31.8888 38.435 31.7773 37.8744C31.6658 37.3138 31.3906 36.7988 30.9864 36.3946C30.5822 35.9905 30.0673 35.7152 29.5067 35.6037C28.9461 35.4922 28.365 35.5494 27.8369 35.7682C27.3088 35.9869 26.8575 36.3573 26.5399 36.8326C26.2223 37.3078 26.0528 37.8666 26.0528 38.4382C26.0528 39.2046 26.3573 39.9397 26.8993 40.4817C27.4413 41.0237 28.1764 41.3282 28.9428 41.3282ZM49.1728 6.64816H46.2828V3.75816C46.2828 2.99169 45.9784 2.25661 45.4364 1.71463C44.8944 1.17265 44.1593 0.868164 43.3928 0.868164C42.6264 0.868164 41.8913 1.17265 41.3493 1.71463C40.8073 2.25661 40.5028 2.99169 40.5028 3.75816V6.64816H17.3828V3.75816C17.3828 2.99169 17.0784 2.25661 16.5364 1.71463C15.9944 1.17265 15.2593 0.868164 14.4928 0.868164C13.7264 0.868164 12.9913 1.17265 12.4493 1.71463C11.9073 2.25661 11.6028 2.99169 11.6028 3.75816V6.64816H8.71285C6.41342 6.64816 4.20817 7.56161 2.58223 9.18755C0.956291 10.8135 0.0428467 13.0187 0.0428467 15.3182V55.7782C0.0428467 58.0776 0.956291 60.2828 2.58223 61.9088C4.20817 63.5347 6.41342 64.4482 8.71285 64.4482H49.1728C51.4723 64.4482 53.6775 63.5347 55.3035 61.9088C56.9294 60.2828 57.8428 58.0776 57.8428 55.7782V15.3182C57.8428 13.0187 56.9294 10.8135 55.3035 9.18755C53.6775 7.56161 51.4723 6.64816 49.1728 6.64816ZM52.0628 55.7782C52.0628 56.5446 51.7584 57.2797 51.2164 57.8217C50.6744 58.3637 49.9393 58.6682 49.1728 58.6682H8.71285C7.94637 58.6682 7.21129 58.3637 6.66931 57.8217C6.12733 57.2797 5.82285 56.5446 5.82285 55.7782V29.7682H52.0628V55.7782ZM52.0628 23.9882H5.82285V15.3182C5.82285 14.5517 6.12733 13.8166 6.66931 13.2746C7.21129 12.7326 7.94637 12.4282 8.71285 12.4282H11.6028V15.3182C11.6028 16.0846 11.9073 16.8197 12.4493 17.3617C12.9913 17.9037 13.7264 18.2082 14.4928 18.2082C15.2593 18.2082 15.9944 17.9037 16.5364 17.3617C17.0784 16.8197 17.3828 16.0846 17.3828 15.3182V12.4282H40.5028V15.3182C40.5028 16.0846 40.8073 16.8197 41.3493 17.3617C41.8913 17.9037 42.6264 18.2082 43.3928 18.2082C44.1593 18.2082 44.8944 17.9037 45.4364 17.3617C45.9784 16.8197 46.2828 16.0846 46.2828 15.3182V12.4282H49.1728C49.9393 12.4282 50.6744 12.7326 51.2164 13.2746C51.7584 13.8166 52.0628 14.5517 52.0628 15.3182V23.9882ZM14.4928 41.3282C15.0644 41.3282 15.6232 41.1587 16.0984 40.8411C16.5737 40.5236 16.9441 40.0722 17.1629 39.5441C17.3816 39.016 17.4388 38.435 17.3273 37.8744C17.2158 37.3138 16.9406 36.7988 16.5364 36.3946C16.1322 35.9905 15.6173 35.7152 15.0567 35.6037C14.4961 35.4922 13.915 35.5494 13.3869 35.7682C12.8588 35.9869 12.4075 36.3573 12.0899 36.8326C11.7723 37.3078 11.6028 37.8666 11.6028 38.4382C11.6028 39.2046 11.9073 39.9397 12.4493 40.4817C12.9913 41.0237 13.7264 41.3282 14.4928 41.3282ZM14.4928 52.8882C15.0644 52.8882 15.6232 52.7187 16.0984 52.4011C16.5737 52.0836 16.9441 51.6322 17.1629 51.1041C17.3816 50.576 17.4388 49.995 17.3273 49.4344C17.2158 48.8737 16.9406 48.3588 16.5364 47.9546C16.1322 47.5504 15.6173 47.2752 15.0567 47.1637C14.4961 47.0522 13.915 47.1094 13.3869 47.3282C12.8588 47.5469 12.4075 47.9173 12.0899 48.3926C11.7723 48.8678 11.6028 49.4266 11.6028 49.9982C11.6028 50.7646 11.9073 51.4997 12.4493 52.0417C12.9913 52.5837 13.7264 52.8882 14.4928 52.8882Z" fill="#E89071"/>
</svg>
