<svg width="15" height="23" viewBox="0 0 15 23" fill="none" xmlns="http://www.w3.org/2000/svg">
<path d="M13.9306 9.43072C13.8389 9.29501 13.7152 9.18391 13.5705 9.10719C13.4257 9.03047 13.2644 8.99048 13.1006 8.99072H10.1006V6.99072H12.3006C12.5658 6.99072 12.8202 6.88537 13.0077 6.69783C13.1952 6.51029 13.3006 6.25594 13.3006 5.99072V1.99072C13.3006 1.72551 13.1952 1.47115 13.0077 1.28362C12.8202 1.09608 12.5658 0.990723 12.3006 0.990723H9.10059C7.56233 0.990723 6.08708 1.60179 4.99937 2.6895C3.91166 3.77721 3.30059 5.25247 3.30059 6.79072V8.99072H1.10059C0.835369 8.99072 0.581016 9.09608 0.393479 9.28362C0.205943 9.47115 0.100586 9.72551 0.100586 9.99072V13.9907C0.100586 14.2559 0.205943 14.5103 0.393479 14.6978C0.581016 14.8854 0.835369 14.9907 1.10059 14.9907H3.30059V21.9907C3.30059 22.2559 3.40594 22.5103 3.59348 22.6978C3.78102 22.8854 4.03537 22.9907 4.30059 22.9907H9.10059C9.3658 22.9907 9.62016 22.8854 9.80769 22.6978C9.99523 22.5103 10.1006 22.2559 10.1006 21.9907V14.9907H11.5006C11.7009 14.9909 11.8966 14.931 12.0624 14.8186C12.2282 14.7063 12.3565 14.5468 12.4306 14.3607L14.0306 10.3607C14.091 10.2093 14.1135 10.0454 14.096 9.88331C14.0786 9.72122 14.0218 9.56584 13.9306 9.43072ZM10.8206 12.9907H9.10059C8.83537 12.9907 8.58102 13.0961 8.39348 13.2836C8.20594 13.4712 8.10059 13.7255 8.10059 13.9907V20.9907H5.30059V13.9907C5.30059 13.7255 5.19523 13.4712 5.00769 13.2836C4.82016 13.0961 4.5658 12.9907 4.30059 12.9907H2.10059V10.9907H4.30059C4.5658 10.9907 4.82016 10.8854 5.00769 10.6978C5.19523 10.5103 5.30059 10.2559 5.30059 9.99072V6.79072C5.30323 5.78371 5.70443 4.8187 6.4165 4.10663C7.12856 3.39457 8.09357 2.99336 9.10059 2.99072H11.3006V4.99072H10.5006C10.162 4.9414 9.8169 4.9621 9.48664 5.05154C9.15638 5.14099 8.848 5.29727 8.58059 5.51072C8.4183 5.68062 8.29211 5.88162 8.20962 6.10161C8.12712 6.3216 8.09003 6.55601 8.10059 6.79072V9.99072C8.10059 10.2559 8.20594 10.5103 8.39348 10.6978C8.58102 10.8854 8.83537 10.9907 9.10059 10.9907H11.6206L10.8206 12.9907Z" fill="white"/>
</svg>
