<svg width="1920" height="598" viewBox="0 0 1920 598" fill="none" xmlns="http://www.w3.org/2000/svg">
<path d="M1410.24 274.577C1444.6 274.577 1472.46 246.717 1472.46 212.35C1472.46 177.982 1444.6 150.122 1410.24 150.122C1375.88 150.122 1348.03 177.982 1348.03 212.35C1348.03 246.717 1375.88 274.577 1410.24 274.577Z" fill="#A36D44"/>
<path opacity="0.5" d="M28.7135 660.562C63.0731 660.562 90.927 632.701 90.927 598.334C90.927 563.967 63.0731 536.106 28.7135 536.106C-5.64606 536.106 -33.5 563.967 -33.5 598.334C-33.5 632.701 -5.64606 660.562 28.7135 660.562Z" fill="#A36D44"/>
<path d="M1554.03 492.861C1377.66 492.861 1234.61 540.434 1234.01 599.193H1874.06C1873.46 540.434 1730.41 492.861 1554.03 492.861Z" fill="#D8D6DB"/>
<g opacity="0.1">
<path opacity="0.1" d="M1494.77 573.424C1527.5 573.424 1554.03 566.051 1554.03 556.957C1554.03 547.863 1527.5 540.491 1494.77 540.491C1462.04 540.491 1435.5 547.863 1435.5 556.957C1435.5 566.051 1462.04 573.424 1494.77 573.424Z" fill="black"/>
</g>
<g opacity="0.1">
<path opacity="0.1" d="M1622.93 543.784C1655.66 543.784 1682.2 536.412 1682.2 527.317C1682.2 518.223 1655.66 510.851 1622.93 510.851C1590.2 510.851 1563.67 518.223 1563.67 527.317C1563.67 536.412 1590.2 543.784 1622.93 543.784Z" fill="black"/>
</g>
<g opacity="0.3">
<path opacity="0.2" d="M1494.77 571.777C1524.23 571.777 1548.11 565.142 1548.11 556.957C1548.11 548.772 1524.23 542.137 1494.77 542.137C1465.31 542.137 1441.43 548.772 1441.43 556.957C1441.43 565.142 1465.31 571.777 1494.77 571.777Z" fill="black"/>
</g>
<g opacity="0.1">
<path opacity="0.3" d="M1622.93 542.137C1652.39 542.137 1676.27 535.502 1676.27 527.317C1676.27 519.133 1652.39 512.498 1622.93 512.498C1593.47 512.498 1569.59 519.133 1569.59 527.317C1569.59 535.502 1593.47 542.137 1622.93 542.137Z" fill="black"/>
</g>
<path d="M160.271 551.952C158.803 552.345 157.932 553.854 158.325 555.322C158.719 556.79 160.227 557.661 161.695 557.268C163.163 556.874 164.034 555.366 163.64 553.898C163.247 552.43 161.738 551.558 160.271 551.952Z" fill="#F2F2F2"/>
<path d="M1811.1 44.1932C1813.96 44.1932 1816.28 41.8709 1816.28 39.0062C1816.28 36.1416 1813.96 33.8193 1811.1 33.8193C1808.23 33.8193 1805.91 36.1416 1805.91 39.0062C1805.91 41.8709 1808.23 44.1932 1811.1 44.1932Z" fill="#F2F2F2"/>
<path d="M1782.21 467.297C1785.07 467.297 1787.39 464.975 1787.39 462.11C1787.39 459.246 1785.07 456.923 1782.21 456.923C1779.34 456.923 1777.02 459.246 1777.02 462.11C1777.02 464.975 1779.34 467.297 1782.21 467.297Z" fill="#F2F2F2"/>
<path d="M1537.74 300.575C1540.6 300.575 1542.92 298.253 1542.92 295.388C1542.92 292.523 1540.6 290.201 1537.74 290.201C1534.87 290.201 1532.55 292.523 1532.55 295.388C1532.55 298.253 1534.87 300.575 1537.74 300.575Z" fill="#F2F2F2"/>
<path d="M1205.02 236.643C1207.89 236.643 1210.21 234.321 1210.21 231.456C1210.21 228.592 1207.89 226.27 1205.02 226.27C1202.16 226.27 1199.84 228.592 1199.84 231.456C1199.84 234.321 1202.16 236.643 1205.02 236.643Z" fill="#F2F2F2"/>
<path d="M155.234 458.984C152.468 459.725 150.826 462.569 151.568 465.336C152.309 468.103 155.153 469.746 157.919 469.004C160.686 468.263 162.327 465.419 161.586 462.652C160.844 459.885 158.001 458.243 155.234 458.984Z" fill="#F2F2F2"/>
<path d="M1794.8 267.231C1796.44 267.231 1797.76 265.904 1797.76 264.267C1797.76 262.63 1796.44 261.303 1794.8 261.303C1793.16 261.303 1791.84 262.63 1791.84 264.267C1791.84 265.904 1793.16 267.231 1794.8 267.231Z" fill="#A36D44"/>
<path d="M312.661 568.175C311.08 568.598 310.142 570.224 310.566 571.805C310.989 573.386 312.614 574.324 314.195 573.901C315.776 573.477 316.714 571.852 316.29 570.271C315.867 568.69 314.242 567.751 312.661 568.175Z" fill="#A36D44"/>
<path d="M1348.09 415.428C1349.72 415.428 1351.05 414.101 1351.05 412.464C1351.05 410.827 1349.72 409.5 1348.09 409.5C1346.45 409.5 1345.12 410.827 1345.12 412.464C1345.12 414.101 1346.45 415.428 1348.09 415.428Z" fill="#A36D44"/>
<path d="M1174.8 510.851C1176.44 510.851 1177.76 509.524 1177.76 507.887C1177.76 506.25 1176.44 504.923 1174.8 504.923C1173.16 504.923 1171.84 506.25 1171.84 507.887C1171.84 509.524 1173.16 510.851 1174.8 510.851Z" fill="#A36D44"/>
<path d="M37.2084 455.942C35.6276 456.365 34.6895 457.991 35.1132 459.572C35.5369 461.153 37.1619 462.091 38.7427 461.668C40.3235 461.244 41.2615 459.619 40.8379 458.038C40.4142 456.457 38.7892 455.518 37.2084 455.942Z" fill="#A36D44"/>
<path d="M1186.94 6.5368C1188.57 6.5368 1189.9 5.20979 1189.9 3.57285C1189.9 1.9359 1188.57 0.608887 1186.94 0.608887C1185.3 0.608887 1183.97 1.9359 1183.97 3.57285C1183.97 5.20979 1185.3 6.5368 1186.94 6.5368Z" fill="#A36D44"/>
<path d="M1303.64 474.946H1302.29V473.596H1302.02V474.946H1300.67V475.21H1302.02V476.56H1302.29V475.21H1303.64V474.946Z" fill="#F2F2F2"/>
<path d="M1737.02 365.28H1735.67V363.93H1735.4V365.28H1734.05V365.544H1735.4V366.894H1735.67V365.544H1737.02V365.28Z" fill="#F2F2F2"/>
<path d="M1848.88 343.05H1847.53V341.7H1847.27V343.05H1845.92V343.314H1847.27V344.664H1847.53V343.314H1848.88V343.05Z" fill="#F2F2F2"/>
<path d="M1608.11 402.329H1606.76V400.979H1606.5V402.329H1605.15V402.593H1606.5V403.943H1606.76V402.593H1608.11V402.329Z" fill="#F2F2F2"/>
<path d="M1816.28 409.739H1814.93V408.389H1814.67V409.739H1813.32V410.003H1814.67V411.353H1814.93V410.003H1816.28V409.739Z" fill="#F2F2F2"/>
<path d="M1565.15 441.602H1563.8V440.251H1563.53V441.602H1562.18V441.865H1563.53V443.215H1563.8V441.865H1565.15V441.602Z" fill="#F2F2F2"/>
<path d="M1659.97 443.083H1658.62V441.733H1658.36V443.083H1657.01V443.347H1658.36V444.697H1658.62V443.347H1659.97V443.083Z" fill="#F2F2F2"/>
<path d="M1305.12 317.115H1303.77V315.765H1303.5V317.115H1302.15V317.379H1303.5V318.729H1303.77V317.379H1305.12V317.115Z" fill="#F2F2F2"/>
<path d="M1737.66 215.131H1735.53V258.156H1737.66V215.131Z" fill="#CBC9CF"/>
<path d="M1687.2 329.508L1667.6 374.662L1671.44 381.052L1670.16 383.181L1679.1 387.867V385.312L1682.51 384.459L1696.99 358.048L1687.2 329.508Z" fill="#CBC9CF"/>
<path d="M1671.86 382.755C1671.86 382.755 1657.38 405.332 1673.57 408.74C1689.75 412.148 1676.55 384.885 1676.55 384.885L1671.86 382.755Z" fill="#CBC9CF"/>
<path d="M1692.73 372.532L1687.62 389.145L1685.49 410.445L1681.66 418.112L1685.92 452.617L1692.73 459.433L1695.71 493.511V508.847L1703.8 522.904L1693.38 537.697C1692.89 538.393 1692.6 539.208 1692.53 540.057C1692.47 540.906 1692.63 541.756 1693.01 542.519C1693.39 543.281 1693.97 543.926 1694.69 544.386C1695.4 544.846 1696.23 545.103 1697.08 545.13C1699.38 545.191 1702.41 544.54 1706.36 542.499C1718.71 536.11 1718.28 530.146 1718.28 530.146C1718.28 530.146 1725.95 530.146 1726.38 524.182C1726.8 518.218 1721.69 475.62 1721.69 475.62L1717.01 457.303V407.463H1718.71L1719.56 450.061L1723.4 465.822L1723.82 472.638L1729.36 540.795C1729.36 540.795 1754.06 547.611 1755.34 542.073C1756.61 536.536 1745.97 533.128 1745.97 533.128L1752.36 520.774V496.919L1750.23 491.807L1746.39 457.303L1752.78 450.487L1756.19 446.227V412.148L1751.93 398.943L1750.65 387.867L1743.84 370.828C1743.84 370.828 1712.75 360.605 1692.73 372.532Z" fill="#EAE9EC"/>
<path d="M1748.1 276.26C1748.1 281.384 1746.88 286.435 1744.55 290.997C1742.22 295.559 1738.84 299.503 1734.68 302.503C1730.53 305.504 1725.73 307.476 1720.66 308.257C1715.6 309.038 1710.43 308.606 1705.56 306.997C1700.7 305.387 1696.29 302.646 1692.69 298.999C1689.09 295.351 1686.41 290.902 1684.87 286.016C1683.32 281.13 1682.96 275.948 1683.81 270.895C1684.66 265.842 1686.69 261.063 1689.75 256.95L1689.76 256.942C1693.82 251.479 1699.5 247.436 1705.99 245.386C1712.47 243.336 1719.44 243.384 1725.9 245.523C1732.36 247.662 1737.99 251.784 1741.97 257.302C1745.95 262.82 1748.1 269.454 1748.1 276.26Z" fill="#A36D44"/>
<g opacity="0.1">
<path opacity="0.1" d="M1743.5 262.837L1740.86 277.964C1721.01 226.445 1689.45 258.091 1688.91 258.645C1692.17 254.257 1696.49 250.767 1701.46 248.501C1706.44 246.235 1711.91 245.265 1717.36 245.684C1722.81 246.102 1728.06 247.895 1732.64 250.894C1737.21 253.894 1740.94 258.002 1743.5 262.837Z" fill="black"/>
</g>
<path d="M1744.35 261.133L1741.71 276.259C1721.87 224.741 1690.3 256.387 1689.76 256.941C1693.02 252.553 1697.34 249.063 1702.32 246.797C1707.29 244.53 1712.76 243.561 1718.21 243.98C1723.66 244.398 1728.92 246.191 1733.49 249.19C1738.06 252.19 1741.79 256.298 1744.35 261.133Z" fill="#EAE9EC"/>
<path d="M1739.91 254.747L1744.35 270.152C1744.35 270.152 1735.14 297.764 1692.43 298.726L1691.03 302.67L1686.34 303.948L1684.21 312.894L1690.18 369.55C1690.18 369.55 1687.62 375.088 1691.88 374.662C1691.88 374.662 1719.99 365.29 1744.26 373.81C1744.26 373.81 1749.37 375.94 1748.1 371.254C1748.1 371.254 1765.13 360.604 1763.85 349.529C1762.58 338.453 1765.13 286.909 1765.13 286.909C1765.13 286.909 1767.69 272 1760.02 268.592C1760.02 268.592 1748.76 252.829 1739.91 254.747Z" fill="#EAE9EC"/>
<path d="M1730.57 362.387C1730.57 362.387 1703.89 365.067 1711.28 379.868C1718.66 394.668 1731.82 367.382 1731.82 367.382L1730.57 362.387Z" fill="#CBC9CF"/>
<path d="M1744.26 296.281C1744.26 296.281 1739.58 301.819 1741.28 310.765C1742.99 319.71 1749.37 339.731 1749.37 339.731L1726.8 360.605L1733.62 369.976L1764.28 354.215L1771.09 349.955C1769.4 332.725 1765.18 315.838 1758.58 299.834L1757.47 297.133C1757.47 297.133 1749.37 293.725 1744.26 296.281Z" fill="#CBC9CF"/>
<path d="M1742.13 281.158C1746.49 281.158 1750.01 277.63 1750.01 273.278C1750.01 268.925 1746.49 265.397 1742.13 265.397C1737.78 265.397 1734.26 268.925 1734.26 273.278C1734.26 277.63 1737.78 281.158 1742.13 281.158Z" fill="#CBC9CF"/>
<path d="M1736.6 220.669C1739.77 220.669 1742.35 218.094 1742.35 214.918C1742.35 211.742 1739.77 209.167 1736.6 209.167C1733.42 209.167 1730.85 211.742 1730.85 214.918C1730.85 218.094 1733.42 220.669 1736.6 220.669Z" fill="#CBC9CF"/>
<path d="M1590.33 305.26H1588.98V303.91H1588.72V305.26H1587.37V305.524H1588.72V306.874H1588.98V305.524H1590.33V305.26Z" fill="#F2F2F2"/>
<path d="M1711.83 263.764H1710.48V262.414H1710.22V263.764H1708.87V264.028H1710.22V265.378H1710.48V264.028H1711.83V263.764Z" fill="#A36D44"/>
<path d="M1698.49 276.361H1697.14V275.011H1696.88V276.361H1695.53V276.625H1696.88V277.975H1697.14V276.625H1698.49V276.361Z" fill="#F2F2F2"/>
<path d="M1645.9 245.001C1647.53 245.001 1648.86 243.674 1648.86 242.037C1648.86 240.4 1647.53 239.073 1645.9 239.073C1644.26 239.073 1642.93 240.4 1642.93 242.037C1642.93 243.674 1644.26 245.001 1645.9 245.001Z" fill="#F2F2F2"/>
<path d="M1516.84 77.112C1518.48 77.112 1519.8 75.785 1519.8 74.148C1519.8 72.5111 1518.48 71.1841 1516.84 71.1841C1515.21 71.1841 1513.88 72.5111 1513.88 74.148C1513.88 75.785 1515.21 77.112 1516.84 77.112Z" fill="#F2F2F2"/>
<path d="M1499.92 262.929C1499.92 469.697 1473.93 469.697 1441.87 469.697C1425.3 469.697 1410.35 469.697 1399.77 441.135C1396.73 432.927 1394.05 422.342 1391.8 408.717C1386.73 378.09 1383.82 332.064 1383.82 262.929C1383.82 236.344 1386.97 210.282 1391.8 185.939C1394.12 174.22 1396.83 162.909 1399.77 152.121C1403.37 138.912 1407.32 126.493 1411.3 115.128C1413.96 107.487 1416.66 100.316 1419.27 93.6936C1431.35 63.1282 1441.87 44.1934 1441.87 44.1934C1441.87 44.1934 1499.92 148.734 1499.92 262.929Z" fill="#D8D6DB"/>
<path d="M1440.1 218.827C1457.72 218.827 1472.01 204.539 1472.01 186.914C1472.01 169.289 1457.72 155.001 1440.1 155.001C1422.48 155.001 1408.19 169.289 1408.19 186.914C1408.19 204.539 1422.48 218.827 1440.1 218.827Z" fill="#563D3D"/>
<path d="M1510.11 450.195C1503.02 432.728 1493.91 429.715 1487.96 429.977V427.146H1394.9V429.977C1388.95 429.715 1379.84 432.728 1372.74 450.195C1361.22 478.562 1379.83 527.317 1379.83 527.317C1379.83 527.317 1369.89 459.319 1402.92 458.871C1405.78 462.604 1409.29 465.789 1413.28 468.274V486.563H1466.62V469.939C1471.83 467.294 1476.38 463.512 1479.94 458.871C1512.97 459.319 1503.02 527.317 1503.02 527.317C1503.02 527.317 1521.64 478.562 1510.11 450.195Z" fill="#A36D44"/>
<path d="M1440.1 211.735C1453.81 211.735 1464.92 200.623 1464.92 186.914C1464.92 173.206 1453.81 162.093 1440.1 162.093C1426.39 162.093 1415.28 173.206 1415.28 186.914C1415.28 200.623 1426.39 211.735 1440.1 211.735Z" fill="#A36D44"/>
<path d="M26.92 512.016L26.92 510.535C3.60127 510.647 -18.7254 519.981 -35.1832 536.498C-51.641 553.014 -60.8924 575.371 -60.9167 598.685L-59.4347 598.685C-59.4091 575.765 -50.3133 553.785 -34.1338 537.547C-17.9542 521.309 3.99474 512.13 26.92 512.016Z" fill="#7D7F9F"/>
<path d="M26.92 512.016L26.92 510.535C50.2397 510.647 72.5672 519.981 89.0256 536.498C105.484 553.014 114.736 575.371 114.76 598.685L113.278 598.685C113.252 575.765 104.156 553.785 87.9761 537.547C71.796 521.309 49.8462 512.13 26.92 512.016Z" fill="#7D7F9F"/>
<path d="M26.92 483.858L26.92 482.376C-37.0717 482.561 -89.0742 534.663 -89.0742 598.685L-87.5922 598.685C-87.5922 535.478 -36.2566 484.043 26.92 483.858Z" fill="#7D7F9F"/>
<path d="M26.92 483.858L26.92 482.376C90.9094 482.561 142.91 534.663 142.91 598.685L141.428 598.685C141.428 535.478 90.0944 484.043 26.92 483.858Z" fill="#7D7F9F"/>
</svg>
