<svg width="62" height="91" viewBox="0 0 62 91" fill="none" xmlns="http://www.w3.org/2000/svg">
<path d="M7.16809 4.41161C5.92171 4.41161 4.77435 5.09072 4.17469 6.18336C3.57504 7.27601 3.61837 8.60859 4.28774 9.65997L27.1181 45.5197L4.28774 81.3794C3.61837 82.4307 3.57504 83.7633 4.17469 84.856C4.77435 85.9486 5.92171 86.6277 7.16809 86.6277H55.1637C56.4101 86.6277 57.5575 85.9486 58.1571 84.856C58.7568 83.7633 58.7135 82.4307 58.0441 81.3794L35.2138 45.5197L58.0441 9.65997C58.7135 8.60859 58.7568 7.27601 58.1571 6.18336C57.5575 5.09072 56.4101 4.41161 55.1637 4.41161H7.16809Z" stroke="#2ACAE0" stroke-width="6.82913" stroke-linecap="round" stroke-linejoin="round"/>
<path d="M51.4916 19.6235H12.5975L31.1234 45.5196L51.4916 19.6235Z" fill="#2ACAE0"/>
<path d="M46.1617 64.0088H17.8089L5.42419 84.889L56.9085 85.9125L46.1617 64.0088Z" fill="#2ACAE0"/>
</svg>
