<svg width="806" height="1027" viewBox="0 0 806 1027" fill="none" xmlns="http://www.w3.org/2000/svg">
<path opacity="0.18" d="M2.70959 226.367C9.00073 257.422 30.7021 283.223 55.0954 303.421C78.1881 322.56 104.502 338.246 124.132 360.883C158.173 400.25 168.578 456.863 205.962 493.066C234.06 520.32 275.149 530.919 313.939 525.408C332.195 522.89 349.733 516.616 365.448 506.981C386.62 493.884 403.951 475.502 424.428 461.33C441.804 449.293 461.237 440.39 478.129 427.671C485.92 421.787 493.022 415.042 499.301 407.563C525.01 377.069 537.214 334.885 525.177 297.153C514.333 263.267 486.613 237.193 474.137 203.883C456.851 157.838 470.008 101.966 442.757 61.0395C424.609 33.8609 392.019 19.5826 359.747 14.8283C327.474 10.0739 294.643 13.4201 262.038 13.8744C226.895 14.3603 191.786 11.4804 157.19 5.2741C119.761 -1.46377 110.097 -6.27871 101.976 34.1637C97.4396 56.8756 78.8838 73.4402 62.43 89.6111C25.4091 125.95 -7.63452 175.462 2.70959 226.367Z" fill="#3F3D56"/>
<path d="M365.283 390.122C366.505 390.187 367.702 390.49 368.807 391.015C370.76 391.586 372.511 392.699 373.858 394.225C375.673 396.708 375.053 400.175 374.221 403.143C373.486 406.16 372.358 409.067 370.864 411.789C369.36 414.528 367.046 416.733 364.24 418.103C363.861 418.311 363.431 418.405 363 418.375C362.672 418.287 362.368 418.129 362.107 417.912C361.846 417.695 361.635 417.425 361.488 417.119C360.013 414.72 359.42 411.883 359.809 409.094C360.119 407.948 360.119 406.741 359.809 405.596C359.356 404.797 358.791 404.068 358.13 403.431C357.331 402.409 356.868 401.164 356.806 399.867C356.744 398.571 357.085 397.287 357.783 396.193C358.886 394.528 360.807 393.831 362.017 392.393C363.091 391.242 363.423 390.122 365.283 390.122Z" fill="#A36D44"/>
<path d="M365.042 391.484C365.694 392.015 366.186 392.718 366.463 393.513C366.582 394.058 366.54 394.626 366.342 395.148C365.94 396.216 365.223 397.135 364.285 397.783C363.649 398.298 362.865 398.595 362.047 398.631C361.443 398.581 360.856 398.405 360.323 398.116C358.284 397.164 356.41 395.892 354.773 394.346C353.877 393.637 353.239 392.653 352.958 391.545C352.893 390.869 352.949 390.187 353.125 389.531C353.261 388.88 353.427 388.244 353.578 387.593C353.63 387.318 353.722 387.053 353.851 386.805C354.003 386.556 354.191 386.332 354.41 386.139C355.252 385.202 356.283 384.454 357.435 383.944C358.508 383.55 358.856 384.08 359.461 384.913C361.147 387.245 363.013 389.442 365.042 391.484Z" fill="#F3BD8F"/>
<path d="M293.888 291.824C294.962 300.485 299.771 317.883 302.16 326.316C306.894 342.972 308.391 352.314 319.113 365.956C325.067 373.524 331.849 380.401 339.333 386.457C343.869 390.137 348.921 393.589 354.652 394.891C355.922 392.287 359.189 391.242 360.701 388.835C360.777 388.714 360.837 388.592 360.913 388.486C362.425 385.64 361.004 382.157 359.522 379.28C353.437 367.431 346.697 355.931 339.333 344.834C338.1 343.173 337.083 341.362 336.308 339.444C335.776 337.634 335.446 335.77 335.325 333.887C335.023 331.328 334.614 328.799 334.115 326.316C332.092 317.214 329.485 308.252 326.312 299.486C325.462 296.372 324.047 293.442 322.138 290.84C318.554 286.57 312.686 285.026 307.166 284.239C298.667 282.982 292.633 281.74 293.888 291.824Z" fill="#212145"/>
<path d="M417.352 307.586C418.329 306.842 419.445 306.302 420.633 305.997C422.497 305.185 424.551 304.913 426.562 305.209C429.586 305.951 431.28 309.01 432.611 311.811C433.998 314.593 435.015 317.546 435.635 320.593C436.236 323.655 435.877 326.828 434.607 329.678C434.453 330.083 434.185 330.435 433.836 330.692C433.529 330.83 433.197 330.902 432.86 330.902C432.524 330.902 432.192 330.83 431.885 330.692C429.219 329.8 426.947 328.007 425.458 325.62C424.973 324.533 424.212 323.593 423.25 322.894C422.393 322.562 421.49 322.368 420.573 322.319C419.305 322.046 418.152 321.388 417.272 320.434C416.392 319.479 415.829 318.276 415.658 316.989C415.446 315.006 416.429 313.28 416.475 311.357C416.46 309.873 415.96 308.798 417.352 307.586Z" fill="#A36D44"/>
<path d="M365.283 390.122C366.505 390.187 367.702 390.49 368.807 391.015C370.76 391.586 372.511 392.699 373.858 394.225C375.673 396.708 375.053 400.175 374.221 403.143C373.486 406.16 372.358 409.067 370.864 411.789C369.36 414.528 367.046 416.733 364.24 418.103C363.861 418.311 363.431 418.405 363 418.375C362.672 418.287 362.368 418.129 362.107 417.912C361.846 417.695 361.635 417.425 361.488 417.119C360.013 414.72 359.42 411.883 359.809 409.094C360.119 407.948 360.119 406.741 359.809 405.596C359.356 404.797 358.791 404.068 358.13 403.431C357.331 402.409 356.868 401.164 356.806 399.867C356.744 398.571 357.085 397.287 357.783 396.193C358.886 394.528 360.807 393.831 362.017 392.393C363.091 391.242 363.423 390.122 365.283 390.122Z" fill="url(#paint0_linear)"/>
<path d="M417.352 307.586C418.329 306.842 419.445 306.302 420.633 305.997C422.497 305.185 424.551 304.913 426.562 305.209C429.586 305.951 431.28 309.01 432.611 311.811C433.998 314.593 435.015 317.546 435.635 320.593C436.236 323.655 435.877 326.828 434.607 329.678C434.453 330.083 434.185 330.435 433.836 330.692C433.529 330.83 433.197 330.902 432.86 330.902C432.524 330.902 432.192 330.83 431.885 330.692C429.219 329.8 426.947 328.007 425.458 325.62C424.973 324.533 424.212 323.593 423.25 322.894C422.393 322.562 421.49 322.368 420.573 322.319C419.305 322.046 418.152 321.388 417.272 320.434C416.392 319.479 415.829 318.276 415.658 316.989C415.446 315.006 416.429 313.28 416.475 311.357C416.46 309.873 415.96 308.798 417.352 307.586Z" fill="url(#paint1_linear)"/>
<path d="M416.641 310.403C417.467 310.251 418.318 310.324 419.106 310.615C419.6 310.886 420.009 311.289 420.286 311.78C420.829 312.774 421.061 313.908 420.951 315.036C420.937 315.86 420.656 316.657 420.15 317.307C419.723 317.742 419.207 318.078 418.637 318.291C416.593 319.233 414.414 319.846 412.18 320.108C411.058 320.334 409.893 320.179 408.868 319.669C408.311 319.291 407.829 318.814 407.446 318.261C407.038 317.731 406.66 317.201 406.267 316.656C406.107 316.43 405.975 316.186 405.873 315.929C405.79 315.649 405.745 315.359 405.737 315.066C405.531 313.843 405.578 312.591 405.873 311.387C406.267 310.327 406.902 310.388 407.93 310.463C410.831 310.674 413.744 310.654 416.641 310.403Z" fill="#F3BD8F"/>
<path d="M311.824 295.034C312.086 296.186 312.751 297.207 313.699 297.911C322.924 306.526 326.176 317.928 335.385 326.543C337.479 328.729 339.928 330.541 342.629 331.903C344.852 332.872 373.903 332.372 383.038 332.372C392.172 332.372 402.002 331.661 409.775 326.649C410.792 326.092 411.634 325.264 412.21 324.257C412.709 322.916 412.804 321.457 412.482 320.063C412.228 317.464 411.607 314.915 410.637 312.492C410.008 310.986 409.009 309.663 407.734 308.646C404.709 306.329 400.565 306.39 396.769 306.496C383.188 306.882 369.596 306.412 356.074 305.088C355.206 305.083 354.355 304.848 353.609 304.406C352.802 303.64 352.27 302.629 352.096 301.53C350.293 295.097 348.096 288.781 345.518 282.618C344.142 279.363 340.981 268.537 337.155 267.28L336.867 267.204C332.814 266.402 326.009 275.396 323.59 278.061C319.601 282.438 316.008 287.16 312.852 292.172C312.203 292.986 311.841 293.992 311.824 295.034Z" fill="#212145"/>
<path d="M388.921 238.784C388.976 236.895 388.487 235.029 387.514 233.409C385.918 230.395 383.73 227.735 381.082 225.589C378.434 223.442 375.38 221.853 372.104 220.917C370.773 223.325 369.457 225.642 368.142 228.049C367.726 228.686 367.448 229.403 367.325 230.154C367.386 231.463 367.827 232.726 368.595 233.788C369.532 235.501 370.196 237.35 370.561 239.269C370.634 240.208 370.929 241.117 371.423 241.918C371.554 242.109 371.722 242.27 371.918 242.393C372.113 242.516 372.331 242.598 372.559 242.634C372.787 242.669 373.02 242.657 373.243 242.6C373.467 242.542 373.676 242.439 373.858 242.297C373.691 240.213 373.949 238.116 374.614 236.134C376.626 236.922 377.639 239.087 378.35 241.116C378.791 243.228 379.718 245.209 381.057 246.9C381.359 247.218 381.813 247.506 382.206 247.324C382.599 247.142 382.675 246.537 382.645 246.052L382.342 241.237C382.343 242.373 382.697 243.481 383.356 244.407C384.014 245.332 384.944 246.029 386.017 246.4C386.621 243.92 386.32 241.305 385.17 239.026C385.79 239.693 385.866 240.692 386.32 241.479C386.773 242.267 388.044 242.751 388.512 241.964C388.67 241.633 388.702 241.257 388.603 240.904C388.335 238.94 387.874 237.008 387.227 235.135L388.452 238.497C388.694 238.709 388.694 238.966 388.921 238.784Z" fill="#F3BD8F"/>
<path d="M177.321 165.228C178.047 167.53 179.271 169.644 180.905 171.42C185.351 176.599 191.234 180.278 196.86 184.124C211.816 194.344 225.593 206.321 241.775 214.588C246.115 216.814 250.682 218.813 254.221 222.159C256.266 224.221 258.026 226.548 259.453 229.078C262.022 233.341 264.145 237.856 265.79 242.554C268.814 250.988 272.852 258.922 276.194 267.204C279.779 276.092 283.605 284.965 289.261 292.687C293.056 297.865 298.017 302.695 304.384 303.967C310.433 305.163 316.754 302.801 321.639 299.046C326.524 295.291 330.183 290.28 333.737 285.328L333.828 285.222C334.72 283.996 335.628 282.739 336.429 281.422C337.616 279.627 338.453 277.624 338.894 275.517C339.017 274.781 339.088 274.037 339.106 273.291C339.106 268.991 337.246 264.766 335.37 260.815C328.484 246.309 321.604 231.809 314.728 217.314C314.728 217.314 314.728 217.314 314.728 217.192C327.515 217.697 340.012 221.164 351.234 227.322C354.24 229.21 357.458 230.735 360.822 231.864C362.517 232.41 364.317 232.54 366.072 232.245C367.827 231.95 369.486 231.238 370.909 230.169C374.569 226.943 374.418 220.887 371.877 216.723C369.337 212.559 365.026 209.834 360.853 207.29C345.185 197.812 328.172 188.591 309.858 189.121C302.569 189.332 291.983 187.773 284.724 188.575C269.434 190.256 255.098 194.435 242.727 185.29C234.024 178.53 224.846 172.407 215.264 166.969C208.519 163.365 201.412 160.428 194.334 157.505C191.726 156.264 188.931 155.461 186.062 155.128C184.621 154.977 183.165 155.186 181.825 155.735C180.484 156.285 179.301 157.158 178.379 158.278C177.706 159.288 177.261 160.434 177.079 161.635C176.896 162.836 176.978 164.062 177.321 165.228Z" fill="#A36D44"/>
<path d="M279.219 164.985L279.99 163.85C280.368 163.241 280.843 162.699 281.397 162.245C281.68 162.024 282.016 161.881 282.372 161.831C282.727 161.78 283.09 161.824 283.423 161.957C284.376 162.411 285.48 162.911 285.555 163.971C285.579 166.321 285.024 168.641 283.937 170.724C283.24 171.645 282.684 172.666 282.289 173.752C282.206 174.37 282.206 174.997 282.289 175.615C282.546 180.702 280.293 185.971 282.002 190.756C282.591 192.391 283.62 193.936 283.514 195.677C283.418 196.966 282.841 198.172 281.896 199.053C280.944 199.918 279.835 200.592 278.629 201.037C276.792 201.781 274.856 202.25 272.882 202.43C272.068 202.604 271.22 202.526 270.45 202.207C269.68 201.888 269.026 201.343 268.572 200.643C267.014 198.791 265.763 196.7 264.867 194.45C262.071 192.775 259.183 191.259 256.217 189.908C247.854 186.365 243.831 176.675 242.833 167.635C242.364 163.471 242.41 159.065 244.345 155.356C245.649 153.05 247.527 151.122 249.795 149.758C252.063 148.395 254.646 147.642 257.291 147.573C262.616 147.53 267.767 149.467 271.748 153.009C275.211 155.931 279.536 160.428 279.219 164.985Z" fill="#F3BD8F"/>
<path d="M246.78 143.318C250.002 140.85 254.342 140.759 258.153 139.2C259.39 138.59 260.663 138.054 261.964 137.595C265.699 136.55 269.525 138.306 273.034 140.078C275.032 141.006 276.882 142.225 278.523 143.697C280.807 145.938 282.047 149.041 284.119 151.479C286.191 153.917 289.049 155.583 291.529 157.627C294.009 159.671 296.263 162.366 296.474 165.576C296.731 169.588 293.737 173.071 290.561 175.554C287.385 178.037 283.741 180.096 281.714 183.654L280.867 176.508C280.715 175.84 280.715 175.147 280.867 174.479C281.162 173.813 281.577 173.207 282.092 172.692C284.008 170.373 285.014 167.433 284.92 164.425C284.92 163.577 284.663 162.578 283.862 162.275C283.06 161.972 281.971 162.835 281.351 163.668L277.419 168.983C277.985 166.242 277.846 163.402 277.016 160.73C276.185 158.057 274.69 155.64 272.671 153.705C268.559 149.848 263.106 147.75 257.472 147.86C254.357 147.86 250.954 148.678 249.079 151.176C247.204 153.675 244.542 158.656 243.453 152.297C243.168 150.639 243.326 148.936 243.91 147.359C244.494 145.782 245.484 144.388 246.78 143.318Z" fill="#212145"/>
<path d="M179.892 149.375C179.169 147.164 178.151 145.061 176.867 143.122C175.723 141.893 174.378 140.869 172.89 140.093C172.778 140.005 172.649 139.941 172.511 139.904C172.373 139.868 172.229 139.86 172.088 139.881C171.952 139.945 171.835 140.043 171.748 140.165C171.661 140.287 171.606 140.429 171.589 140.578C171.166 142.243 172.133 143.97 171.982 145.681C171.984 145.756 171.97 145.832 171.941 145.902C171.912 145.972 171.87 146.036 171.816 146.089C171.589 146.271 171.271 146.089 171.06 145.893C168.94 143.872 166.692 141.991 164.33 140.26C161.949 138.511 159.056 137.6 156.103 137.671C156.103 140.003 158.054 141.804 159.884 143.258C157.491 141.276 154.606 139.984 151.536 139.518C150.976 140.381 151.748 141.471 152.474 142.213L157.51 147.316C155.416 145.844 152.998 144.899 150.462 144.56C150.221 144.484 149.963 144.484 149.721 144.56C149.537 144.676 149.4 144.855 149.336 145.063C149.272 145.272 149.286 145.496 149.373 145.696C149.546 146.099 149.822 146.449 150.175 146.71C153.02 149.252 156.122 151.49 159.43 153.387C157.573 152.52 155.603 151.919 153.578 151.601C153.479 152.122 153.531 152.661 153.726 153.154C153.922 153.647 154.253 154.075 154.682 154.387C155.972 155.516 157.4 156.478 158.931 157.249C161.728 159.051 164.836 160.314 168.096 160.973C170.152 161.246 172.36 161.079 174.145 162.109C174.977 162.593 175.657 163.32 176.444 163.865C177.22 164.419 178.109 164.797 179.046 164.972C179.984 165.147 180.948 165.116 181.873 164.88C182.69 164.647 183.448 164.242 184.095 163.691C184.742 163.139 185.263 162.455 185.623 161.685C186.108 160.744 186.294 159.677 186.156 158.627C186.019 157.577 185.563 156.594 184.852 155.81C182.784 154.02 181.097 151.832 179.892 149.375Z" fill="#F3BD8F"/>
<path d="M309.586 232.258C315.918 243.646 321.202 255.586 325.374 267.931C327.431 274.094 329.367 280.559 333.707 285.344C333.796 285.465 333.897 285.577 334.009 285.677C334.913 284.327 335.712 282.91 336.399 281.437C337.615 278.845 338.513 276.115 339.075 273.307C339.075 269.006 337.215 264.782 335.34 260.83C328.454 246.325 321.573 231.824 314.697 217.329C312.247 217.102 309.465 218.207 306.395 221.735C303.93 224.552 307.771 228.988 309.586 232.258Z" fill="url(#paint2_linear)"/>
<path d="M334.644 284.133C335.28 286.813 337.351 289.205 338.395 291.703C340.678 297.275 341.253 305.451 346.44 309.328C350.161 312.644 355.514 313.431 360.399 313.87C374.992 315.202 389.692 314.9 404.255 314.582C406.223 314.762 408.195 314.289 409.866 313.234C410.123 313.029 410.357 312.795 410.562 312.538C409.932 311.032 408.933 309.709 407.658 308.692C404.633 306.375 400.49 306.436 396.694 306.542C383.112 306.928 369.52 306.458 355.998 305.134C355.131 305.129 354.28 304.894 353.533 304.452C352.726 303.686 352.195 302.675 352.021 301.575C350.244 295.129 348.072 288.798 345.518 282.618C344.142 279.363 340.981 268.537 337.155 267.28C336.299 268.878 335.784 270.636 335.643 272.443C335.204 276.002 333.782 280.483 334.644 284.133Z" fill="url(#paint3_linear)"/>
<path d="M359.355 387.79C359.771 388.198 360.239 388.55 360.747 388.835C360.822 388.713 360.883 388.592 360.958 388.486C362.471 385.64 361.049 382.157 359.567 379.28C353.468 367.43 346.713 355.93 339.333 344.834C338.1 343.173 337.083 341.362 336.308 339.444C335.776 337.634 335.446 335.77 335.325 333.887C335.023 331.328 334.614 328.799 334.115 326.316C330.289 323.167 324.225 319.911 324.225 318.746C323.968 324.408 323.817 330.041 323.771 335.719C323.877 339.05 354.743 383.671 359.355 387.79Z" fill="url(#paint4_linear)"/>
<path d="M282.425 165.439C282.636 165.412 282.85 165.451 283.037 165.551C283.224 165.652 283.375 165.809 283.468 166C283.65 166.394 283.682 166.84 283.559 167.256C283.42 167.659 283.259 168.053 283.075 168.437C282.817 169.18 282.466 169.887 282.032 170.542C281.813 170.869 281.502 171.124 281.139 171.275C280.776 171.426 280.376 171.466 279.99 171.39C279.818 171.333 279.662 171.234 279.537 171.102C279.413 170.897 279.35 170.661 279.355 170.421C279.32 169.292 279.637 168.181 280.262 167.241C280.525 166.936 280.83 166.67 281.17 166.454C281.563 166.121 281.865 165.545 282.425 165.439Z" fill="url(#paint5_linear)"/>
<path d="M145.01 171.861L171.244 160.348C173.049 159.556 175.154 160.379 175.945 162.186L179.94 171.311C180.732 173.119 179.91 175.226 178.104 176.018L151.871 187.532C150.066 188.324 147.961 187.501 147.17 185.693L143.175 176.569C142.383 174.761 143.205 172.654 145.01 171.861Z" fill="#A36D44"/>
<path d="M144.642 178.221L175.806 164.543C177.321 163.879 179.087 164.569 179.751 166.086L179.836 166.28C180.5 167.796 179.81 169.564 178.295 170.229L147.131 183.906C145.617 184.571 143.851 183.881 143.187 182.364L143.102 182.17C142.438 180.654 143.128 178.885 144.642 178.221Z" fill="#A36D44"/>
<path d="M109.283 136.505C111.321 141.175 114.46 145.28 118.432 148.466L143.385 173.011L172.542 160.216L169.865 123.877C169.887 119.162 168.857 114.502 166.849 110.237C164.842 105.971 161.909 102.209 158.263 99.2238C154.618 96.2388 150.353 94.1066 145.779 92.983C141.206 91.8593 136.439 91.7727 131.828 92.7292C127.217 93.6858 122.877 95.6615 119.126 98.512C115.375 101.363 112.307 105.016 110.146 109.205C107.986 113.395 106.787 118.014 106.637 122.727C106.488 127.44 107.392 132.126 109.283 136.444V136.505Z" fill="#A36D44"/>
<path opacity="0.69" d="M109.283 136.505C111.321 141.175 114.46 145.28 118.432 148.466L143.385 173.011L172.542 160.216L169.865 123.877C169.887 119.162 168.857 114.502 166.849 110.237C164.842 105.971 161.909 102.209 158.263 99.2238C154.618 96.2388 150.353 94.1066 145.779 92.983C141.206 91.8593 136.439 91.7727 131.828 92.7292C127.217 93.6858 122.877 95.6615 119.126 98.512C115.375 101.363 112.307 105.016 110.146 109.205C107.986 113.395 106.787 118.014 106.637 122.727C106.488 127.44 107.392 132.126 109.283 136.444V136.505Z" fill="url(#paint6_radial)"/>
<path d="M162.092 165.364C162.452 154.597 160.428 143.883 156.164 133.991C155.211 131.781 153.729 129.313 151.34 129.086C148.391 128.813 146.364 132.114 146.107 135.142C145.949 137.078 146.206 139.025 146.86 140.852C147.515 142.68 148.552 144.347 149.903 145.741C150.386 143.032 150.103 140.242 149.086 137.686C148.594 135.721 147.664 133.893 146.364 132.341C145.692 131.582 144.813 131.035 143.836 130.766C142.859 130.497 141.825 130.518 140.859 130.827C137.986 131.978 137.532 135.975 138.455 138.943C139.523 142.323 141.69 145.249 144.61 147.255C144.412 145.172 143.669 143.178 142.455 141.474C141.242 139.77 139.601 138.416 137.699 137.55C136.423 136.928 134.984 136.722 133.585 136.959C132.89 137.091 132.246 137.417 131.727 137.899C131.208 138.381 130.835 139 130.651 139.685C130.531 140.489 130.609 141.31 130.878 142.077C132.391 147.755 136.67 152.297 141.116 156.173C145.563 160.05 150.432 163.502 154.077 168.135" stroke="white" stroke-width="0.8" stroke-miterlimit="10"/>
<path d="M145.01 171.861L171.244 160.348C173.049 159.556 175.154 160.379 175.945 162.186L179.94 171.311C180.732 173.119 179.91 175.226 178.104 176.018L151.871 187.532C150.066 188.324 147.961 187.501 147.17 185.693L143.175 176.569C142.383 174.761 143.205 172.654 145.01 171.861Z" fill="url(#paint7_linear)"/>
<path d="M144.642 178.221L175.806 164.543C177.321 163.879 179.087 164.569 179.751 166.086L179.836 166.28C180.5 167.796 179.81 169.564 178.295 170.229L147.131 183.906C145.617 184.571 143.851 183.881 143.187 182.364L143.102 182.17C142.438 180.654 143.128 178.885 144.642 178.221Z" fill="url(#paint8_linear)"/>
<path opacity="0.48" d="M182.795 338.05C170.939 313.203 193.699 282.542 183.718 256.878C181.933 252.244 159.718 192.088 159.188 187.167C158.523 181.005 155.74 181.671 161.29 178.839C166.841 176.008 175.34 170.466 178.122 176.008C182.946 185.638 212.421 246.037 214.024 256.635C215.884 269.066 213.238 282.421 218.41 293.883C224.126 306.39 237.495 313.234 250.168 318.609C262.841 323.984 276.451 329.48 284.013 340.942C292.512 353.812 292.27 372.739 305.049 381.354C311.128 385.427 318.811 386.078 326.13 386.381C338.639 386.911 351.167 386.805 363.665 386.063C378.078 385.215 392.55 383.535 406.917 384.958C421.334 386.495 435.257 391.097 447.754 398.455C460.252 405.814 471.036 415.759 479.386 427.626C483.687 428.843 487.72 430.862 491.273 433.577C501.754 437.112 530.959 453.734 563.928 491.942C605.14 539.702 619.272 577.764 700.281 609.847C781.291 641.93 822.197 682.034 855.082 738.982L942.389 1026.54C927.362 995.551 801.006 959.541 739.706 945.41C684.503 938.305 626.994 902.983 605.14 886.211C573.576 862.538 515.271 838.353 490.063 829.22C451.047 804.232 426.68 745.013 419.373 718.527C405.345 686.525 378.822 661.719 367.314 653.317C352.519 637.425 339.367 611.122 341.559 584.818C343.313 563.776 330.855 545.973 324.406 539.702C317.798 534.721 316.285 524.894 313.261 516.824C303.658 490.72 273.291 477.941 259.801 453.578C246.977 430.442 250.788 399.403 233.366 379.522C218.818 362.867 192.308 357.946 182.795 338.05Z" fill="#CC5E00"/>
<path opacity="0.48" d="M157.646 211.197C168.746 239.708 143.46 273.76 156.633 301.378C167.219 323.515 196.633 329.041 212.799 347.483C232.156 369.575 227.922 404.051 242.168 429.746C257.155 456.743 290.803 471.006 301.525 500.017C304.852 508.965 306.486 519.882 313.896 525.409C314.368 527.387 317.909 536.041 328.292 554.829C341.271 578.315 328.292 587.585 328.292 619.105C328.292 650.625 341.271 639.5 380.208 701.304C419.144 763.108 476.622 872.501 561.293 895.369C645.964 918.236 610.118 943.576 748.559 968.915C816.297 981.314 840.787 993.574 845.868 1002.92L838.174 1016.5C844.495 1013.62 849.094 1008.86 845.868 1002.92L909.249 891.042C899.36 829.856 877.976 702.664 871.548 683.381C863.514 659.278 759.683 601.182 700.351 571.516C641.02 541.85 618.673 547.467 588.39 505.441C564.162 471.819 527.146 421.424 499.258 407.564C495.301 404.549 490.812 402.309 486.025 400.962C476.752 387.776 464.771 376.725 450.885 368.552C436.999 360.378 421.529 355.27 405.511 353.57C389.556 351.965 373.48 353.843 357.465 354.797C343.582 355.594 329.684 355.71 315.771 355.145C307.65 354.797 299.136 354.085 292.361 349.558C278.16 339.988 278.433 318.957 268.996 304.664C260.588 291.93 245.419 285.813 231.385 279.847C217.351 273.882 202.47 266.296 196.194 252.381C190.432 239.647 193.381 224.824 191.294 211.015C189.525 199.159 184.081 188.227 178.727 177.522C175.627 171.36 167.445 175.811 161.275 178.87C158.208 180.455 155.681 182.919 154.017 185.947C152.352 188.975 151.626 192.431 151.929 195.874C152.549 201.324 155.665 206.094 157.646 211.197Z" fill="#D99662"/>
<defs>
<linearGradient id="paint0_linear" x1="375.023" y1="404.264" x2="356.875" y2="404.264" gradientUnits="userSpaceOnUse">
<stop offset="0.01"/>
<stop offset="0.13" stop-opacity="0.69"/>
<stop offset="1" stop-opacity="0"/>
</linearGradient>
<linearGradient id="paint1_linear" x1="-1820.59" y1="6276.04" x2="-2092.69" y2="6276.04" gradientUnits="userSpaceOnUse">
<stop offset="0.01"/>
<stop offset="0.13" stop-opacity="0.69"/>
<stop offset="1" stop-opacity="0"/>
</linearGradient>
<linearGradient id="paint2_linear" x1="-4661.48" y1="12633.1" x2="-7143.49" y2="12831.2" gradientUnits="userSpaceOnUse">
<stop offset="0.01"/>
<stop offset="0.13" stop-opacity="0.69"/>
<stop offset="1" stop-opacity="0"/>
</linearGradient>
<linearGradient id="paint3_linear" x1="-12393.8" y1="11614.7" x2="-11563.1" y2="9464.67" gradientUnits="userSpaceOnUse">
<stop offset="0.01"/>
<stop offset="0.13" stop-opacity="0.69"/>
<stop offset="1" stop-opacity="0"/>
</linearGradient>
<linearGradient id="paint4_linear" x1="-5781.47" y1="17590.8" x2="-7428.15" y2="18317.4" gradientUnits="userSpaceOnUse">
<stop offset="0.01"/>
<stop offset="0.13" stop-opacity="0.69"/>
<stop offset="1" stop-opacity="0"/>
</linearGradient>
<linearGradient id="paint5_linear" x1="-617.295" y1="939.47" x2="-649.733" y2="968.938" gradientUnits="userSpaceOnUse">
<stop offset="0.01"/>
<stop offset="0.13" stop-opacity="0.69"/>
<stop offset="1" stop-opacity="0"/>
</linearGradient>
<radialGradient id="paint6_radial" cx="0" cy="0" r="1" gradientUnits="userSpaceOnUse" gradientTransform="translate(141.682 131.55) rotate(-23.6956) scale(35.6971 35.7265)">
<stop offset="0.34" stop-color="white"/>
<stop offset="1" stop-color="white" stop-opacity="0.39"/>
</radialGradient>
<linearGradient id="paint7_linear" x1="42541.8" y1="3705.57" x2="41765.8" y2="4045.31" gradientUnits="userSpaceOnUse">
<stop offset="0.01"/>
<stop offset="0.13" stop-opacity="0.69"/>
<stop offset="1" stop-opacity="0"/>
</linearGradient>
<linearGradient id="paint8_linear" x1="41244.8" y1="-11037.6" x2="40274.7" y2="-10612.8" gradientUnits="userSpaceOnUse">
<stop offset="0.01"/>
<stop offset="0.13" stop-opacity="0.69"/>
<stop offset="1" stop-opacity="0"/>
</linearGradient>
</defs>
</svg>
