<svg width="23" height="23" viewBox="0 0 23 23" fill="none" xmlns="http://www.w3.org/2000/svg">
<path d="M11.6018 6.49072C10.514 6.49072 9.45064 6.81329 8.54617 7.41764C7.6417 8.02199 6.93675 8.88097 6.52047 9.88596C6.10419 10.891 5.99527 11.9968 6.20749 13.0637C6.41971 14.1306 6.94353 15.1106 7.71272 15.8798C8.48191 16.649 9.46192 17.1728 10.5288 17.385C11.5957 17.5973 12.7016 17.4883 13.7066 17.0721C14.7116 16.6558 15.5705 15.9508 16.1749 15.0464C16.7792 14.1419 17.1018 13.0785 17.1018 11.9907C17.1018 10.532 16.5223 9.13309 15.4909 8.10164C14.4594 7.07019 13.0605 6.49072 11.6018 6.49072ZM11.6018 15.2907C10.9491 15.2907 10.3111 15.0972 9.76842 14.7346C9.22574 14.372 8.80277 13.8566 8.553 13.2536C8.30324 12.6506 8.23788 11.9871 8.36522 11.3469C8.49255 10.7068 8.80684 10.1188 9.26835 9.65727C9.72987 9.19576 10.3179 8.88146 10.958 8.75413C11.5981 8.6268 12.2617 8.69215 12.8647 8.94192C13.4677 9.19169 13.983 9.61466 14.3457 10.1573C14.7083 10.7 14.9018 11.338 14.9018 11.9907C14.9018 12.8659 14.5541 13.7053 13.9353 14.3242C13.3164 14.943 12.477 15.2907 11.6018 15.2907ZM17.1018 5.39072C16.8842 5.39072 16.6716 5.45524 16.4907 5.57611C16.3098 5.69698 16.1688 5.86877 16.0855 6.06977C16.0023 6.27077 15.9805 6.49194 16.0229 6.70532C16.0654 6.9187 16.1702 7.1147 16.324 7.26854C16.4778 7.42238 16.6738 7.52714 16.8872 7.56959C17.1006 7.61203 17.3218 7.59025 17.5228 7.50699C17.7238 7.42373 17.8956 7.28274 18.0164 7.10185C18.1373 6.92096 18.2018 6.70828 18.2018 6.49072C18.2018 6.19898 18.0859 5.9192 17.8796 5.71291C17.6733 5.50662 17.3935 5.39072 17.1018 5.39072ZM22.5358 7.85472C22.5176 6.91469 22.339 5.98466 22.0078 5.10472C21.7007 4.30399 21.2286 3.57681 20.6221 2.97039C20.0157 2.36397 19.2885 1.89186 18.4878 1.58472C17.6079 1.25351 16.6778 1.07495 15.7378 1.05672C14.6708 0.990723 14.3188 0.990723 11.6018 0.990723C8.88481 0.990723 8.53281 0.990723 7.46581 1.05672C6.52577 1.07495 5.59575 1.25351 4.71581 1.58472C3.91508 1.89186 3.1879 2.36397 2.58147 2.97039C1.97505 3.57681 1.50294 4.30399 1.19581 5.10472C0.864596 5.98466 0.686031 6.91469 0.667807 7.85472C0.601807 8.93272 0.601807 9.28472 0.601807 11.9907C0.601807 14.6967 0.601807 15.0487 0.667807 16.1267C0.686031 17.0668 0.864596 17.9968 1.19581 18.8767C1.50294 19.6775 1.97505 20.4046 2.58147 21.0111C3.1879 21.6175 3.91508 22.0896 4.71581 22.3967C5.59575 22.7279 6.52577 22.9065 7.46581 22.9247C8.56581 22.9247 8.88481 22.9907 11.6018 22.9907C14.3188 22.9907 14.6708 22.9907 15.7378 22.9247C16.6778 22.9065 17.6079 22.7279 18.4878 22.3967C19.2885 22.0896 20.0157 21.6175 20.6221 21.0111C21.2286 20.4046 21.7007 19.6775 22.0078 18.8767C22.339 17.9968 22.5176 17.0668 22.5358 16.1267C22.5358 15.0267 22.6018 14.6967 22.6018 11.9907C22.6018 9.28472 22.6018 8.93272 22.5358 7.85472ZM20.3358 16.0277C20.3165 16.7258 20.1866 17.4164 19.9508 18.0737C19.7559 18.5933 19.4478 19.063 19.0488 19.4487C18.6654 19.8479 18.1948 20.1528 17.6738 20.3397C17.0149 20.5851 16.3197 20.719 15.6168 20.7357C14.5828 20.7357 14.2638 20.7907 11.5908 20.7907C8.91781 20.7907 8.60981 20.7907 7.57581 20.7907C6.87403 20.7726 6.17963 20.6426 5.51881 20.4057C4.99923 20.2108 4.52954 19.9027 4.14381 19.5037C3.74468 19.1203 3.43972 18.6497 3.25281 18.1287C3.00839 17.4734 2.87457 16.7819 2.85681 16.0827C2.85681 14.9827 2.85681 14.7077 2.85681 12.0457C2.85681 9.38372 2.85681 9.06472 2.85681 8.00872C2.87577 7.30605 3.00953 6.61121 3.25281 5.95172C3.44262 5.43542 3.74729 4.96901 4.14381 4.58772C4.52724 4.18859 4.99786 3.88363 5.51881 3.69672C6.1777 3.45131 6.8729 3.31747 7.57581 3.30072C8.60981 3.19072 8.92881 3.19072 11.6018 3.19072C14.2748 3.19072 14.5938 3.19072 15.6278 3.19072C16.3342 3.20868 17.0328 3.34246 17.6958 3.58672C18.2121 3.77654 18.6785 4.08121 19.0598 4.47772C19.4589 4.86116 19.7639 5.33177 19.9508 5.85272C20.2201 6.52214 20.3726 7.23276 20.4018 7.95372C20.4018 9.05372 20.4568 9.32872 20.4568 11.9907C20.4568 14.6527 20.4018 14.9717 20.4018 16.0277H20.3358Z" fill="white"/>
</svg>
