<svg width="42" height="65" viewBox="0 0 42 65" fill="none" xmlns="http://www.w3.org/2000/svg">
<path d="M21.0573 0.707031C17.0787 0.71202 13.19 1.88995 9.87739 4.0935C6.5648 6.29704 3.97545 9.42838 2.43321 13.0958C0.890959 16.7633 0.46428 20.8041 1.20654 24.7128C1.94879 28.6215 3.82703 32.2246 6.60634 35.0714V61.401C6.60783 61.8936 6.73524 62.3778 6.97646 62.8073C7.21769 63.2369 7.56473 63.5977 7.98461 63.8554C8.4045 64.1132 8.88331 64.2593 9.37555 64.2799C9.86779 64.3005 10.3571 64.1949 10.7971 63.9732L21.0573 58.8576L31.3174 63.9732C31.7201 64.1796 32.1656 64.2884 32.618 64.2912C33.1591 64.2929 33.6899 64.1427 34.1498 63.8576C34.5663 63.5973 34.9096 63.2351 35.1473 62.8053C35.385 62.3755 35.5092 61.8921 35.5082 61.401V35.0714C38.2875 32.2246 40.1658 28.6215 40.908 24.7128C41.6503 20.8041 41.2236 16.7633 39.6813 13.0958C38.1391 9.42838 35.5497 6.29704 32.2372 4.0935C28.9246 1.88995 25.0358 0.71202 21.0573 0.707031ZM29.7278 56.7189L22.3579 53.0483C21.9544 52.8451 21.509 52.7392 21.0573 52.7392C20.6055 52.7392 20.1601 52.8451 19.7567 53.0483L12.3867 56.7189V39.2043C14.216 40.0681 16.1644 40.6526 18.1671 40.9384V44.0598C18.1671 44.8264 18.4716 45.5615 19.0136 46.1035C19.5556 46.6455 20.2907 46.95 21.0573 46.95C21.8238 46.95 22.5589 46.6455 23.1009 46.1035C23.643 45.5615 23.9475 44.8264 23.9475 44.0598V40.9384C25.9501 40.6526 27.8986 40.0681 29.7278 39.2043V56.7189ZM21.0573 35.3893C18.1991 35.3893 15.4052 34.5418 13.0288 32.9539C10.6523 31.366 8.80011 29.109 7.70635 26.4685C6.61259 23.8279 6.32641 20.9223 6.88401 18.1191C7.4416 15.3159 8.81792 12.741 10.8389 10.72C12.8599 8.69899 15.4348 7.32267 18.238 6.76508C21.0412 6.20748 23.9468 6.49366 26.5874 7.58742C29.228 8.68118 31.4849 10.5334 33.0728 12.9098C34.6607 15.2863 35.5082 18.0802 35.5082 20.9383C35.5082 24.771 33.9857 28.4466 31.2756 31.1567C28.5656 33.8668 24.8899 35.3893 21.0573 35.3893Z" fill="#DE71E8"/>
<path d="M20.5816 12.8571C20.7313 12.3964 21.383 12.3964 21.5327 12.8571L23.2888 18.262C23.3558 18.468 23.5478 18.6075 23.7644 18.6075H29.4474C29.9318 18.6075 30.1332 19.2273 29.7413 19.512L25.1436 22.8524C24.9684 22.9797 24.8951 23.2054 24.962 23.4114L26.7182 28.8163C26.8678 29.277 26.3406 29.66 25.9487 29.3753L21.351 26.0349C21.1758 25.9076 20.9385 25.9076 20.7633 26.0349L16.1656 29.3753C15.7737 29.66 15.2465 29.277 15.3962 28.8163L17.1523 23.4114C17.2192 23.2054 17.1459 22.9797 16.9707 22.8524L12.373 19.512C11.9811 19.2273 12.1825 18.6075 12.6669 18.6075H18.3499C18.5665 18.6075 18.7585 18.468 18.8255 18.262L20.5816 12.8571Z" fill="#DE71E8"/>
</svg>
