<svg width="188" height="28" viewBox="0 0 188 28" fill="none" xmlns="http://www.w3.org/2000/svg">
<path d="M36.5287 4.2106C35.7301 3.55379 34.795 3.08355 33.7915 2.83419C32.7881 2.58482 31.7416 2.56262 30.7284 2.7692C29.3794 3.04169 28.1417 3.70878 27.1724 4.68581C26.2031 5.66284 25.5459 6.90578 25.2841 8.25693C25.0929 9.27 25.1277 10.3128 25.3858 11.3109C25.644 12.309 26.1192 13.2379 26.7776 14.0312C27.3886 14.7207 27.7389 15.6024 27.7675 16.5232V19.1282C27.7675 19.8191 28.0419 20.4816 28.5304 20.9701C29.019 21.4587 29.6815 21.7331 30.3724 21.7331H33.8457C34.5365 21.7331 35.1991 21.4587 35.6876 20.9701C36.1761 20.4816 36.4506 19.8191 36.4506 19.1282V16.6882C36.4797 15.6716 36.8532 14.695 37.5099 13.9183C38.6605 12.495 39.2029 10.675 39.0192 8.854C38.8355 7.03298 37.9405 5.35806 36.5287 4.19323V4.2106ZM34.714 19.1282C34.714 19.3585 34.6225 19.5793 34.4596 19.7422C34.2968 19.905 34.0759 19.9965 33.8457 19.9965H30.3724C30.1421 19.9965 29.9213 19.905 29.7584 19.7422C29.5956 19.5793 29.5041 19.3585 29.5041 19.1282V18.2599H34.714V19.1282ZM36.164 12.8416C35.291 13.8772 34.7816 15.1705 34.714 16.5232H32.9773V13.9183C32.9773 13.688 32.8859 13.4672 32.723 13.3043C32.5602 13.1415 32.3393 13.05 32.109 13.05C31.8787 13.05 31.6579 13.1415 31.495 13.3043C31.3322 13.4672 31.2407 13.688 31.2407 13.9183V16.5232H29.5041C29.4812 15.1931 28.9891 13.9138 28.1148 12.9111C27.5379 12.2199 27.15 11.391 26.9889 10.5053C26.8277 9.61954 26.8989 8.70716 27.1953 7.85709C27.4918 7.00703 28.0035 6.2483 28.6805 5.65488C29.3576 5.06146 30.1768 4.65361 31.0584 4.47109C31.816 4.31509 32.5989 4.32977 33.3502 4.51404C34.1014 4.69832 34.8022 5.04758 35.4017 5.53647C36.0012 6.02535 36.4843 6.64159 36.8159 7.34044C37.1475 8.03929 37.3193 8.80322 37.3189 9.57676C37.3253 10.7662 36.917 11.9207 36.164 12.8416Z" fill="#CC5E00"/>
<path d="M7.04856 21.9972C5.83123 21.9972 4.65056 21.8358 3.50656 21.5132C2.37723 21.1758 1.4679 20.7432 0.778564 20.2152L1.98856 17.5312C2.64856 18.0152 3.43323 18.4038 4.34256 18.6972C5.2519 18.9905 6.16123 19.1372 7.07056 19.1372C8.08256 19.1372 8.83056 18.9905 9.31456 18.6972C9.79856 18.3892 10.0406 17.9858 10.0406 17.4872C10.0406 17.1205 9.8939 16.8198 9.60056 16.5852C9.3219 16.3358 8.95523 16.1378 8.50056 15.9912C8.06056 15.8445 7.45923 15.6832 6.69656 15.5072C5.52323 15.2285 4.56256 14.9498 3.81456 14.6712C3.06656 14.3925 2.42123 13.9452 1.87856 13.3292C1.35056 12.7132 1.08656 11.8918 1.08656 10.8652C1.08656 9.97051 1.32856 9.16385 1.81256 8.44518C2.29656 7.71185 3.02256 7.13251 3.99056 6.70718C4.97323 6.28185 6.16856 6.06918 7.57656 6.06918C8.55923 6.06918 9.5199 6.18651 10.4586 6.42118C11.3972 6.65585 12.2186 6.99318 12.9226 7.43318L11.8226 10.1392C10.3999 9.33251 8.97723 8.92918 7.55456 8.92918C6.55723 8.92918 5.81656 9.09051 5.33256 9.41318C4.86323 9.73585 4.62856 10.1612 4.62856 10.6892C4.62856 11.2172 4.8999 11.6132 5.44256 11.8772C5.9999 12.1265 6.84323 12.3758 7.97256 12.6252C9.1459 12.9038 10.1066 13.1825 10.8546 13.4612C11.6026 13.7398 12.2406 14.1798 12.7686 14.7812C13.3112 15.3825 13.5826 16.1965 13.5826 17.2232C13.5826 18.1032 13.3332 18.9098 12.8346 19.6432C12.3506 20.3618 11.6172 20.9338 10.6346 21.3592C9.6519 21.7845 8.45656 21.9972 7.04856 21.9972Z" fill="black"/>
<path d="M56.3582 21.9092C55.0969 21.9092 53.9602 21.6525 52.9482 21.1392C51.9509 20.6112 51.1662 19.8852 50.5942 18.9612C50.0369 18.0372 49.7582 16.9885 49.7582 15.8152C49.7582 14.6418 50.0369 13.5932 50.5942 12.6692C51.1662 11.7452 51.9509 11.0265 52.9482 10.5132C53.9602 9.98518 55.0969 9.72118 56.3582 9.72118C57.6049 9.72118 58.6902 9.98518 59.6142 10.5132C60.5529 11.0265 61.2349 11.7672 61.6602 12.7352L58.9982 14.1652C58.3822 13.0798 57.4949 12.5372 56.3362 12.5372C55.4416 12.5372 54.7009 12.8305 54.1142 13.4172C53.5276 14.0038 53.2342 14.8032 53.2342 15.8152C53.2342 16.8272 53.5276 17.6265 54.1142 18.2132C54.7009 18.7998 55.4416 19.0932 56.3362 19.0932C57.5096 19.0932 58.3969 18.5505 58.9982 17.4652L61.6602 18.9172C61.2349 19.8558 60.5529 20.5892 59.6142 21.1172C58.6902 21.6452 57.6049 21.9092 56.3582 21.9092Z" fill="black"/>
<path d="M80.8322 9.72118C82.2989 9.72118 83.4796 10.1612 84.3742 11.0412C85.2836 11.9212 85.7382 13.2265 85.7382 14.9572V21.7332H82.3062V15.4852C82.3062 14.5465 82.1009 13.8498 81.6902 13.3952C81.2796 12.9258 80.6856 12.6912 79.9082 12.6912C79.0429 12.6912 78.3536 12.9625 77.8402 13.5052C77.3269 14.0332 77.0702 14.8252 77.0702 15.8812V21.7332H73.6382V5.40918H77.0702V11.1292C77.5249 10.6745 78.0749 10.3298 78.7202 10.0952C79.3656 9.84585 80.0696 9.72118 80.8322 9.72118Z" fill="black"/>
<path d="M118.646 9.89718L114.356 21.7332H111.056L108.394 14.3852L105.644 21.7332H102.344L98.0762 9.89718H101.31L104.104 17.9052L107.008 9.89718H109.912L112.728 17.9052L115.61 9.89718H118.646Z" fill="black"/>
<path d="M135.412 9.72118C137.246 9.72118 138.654 10.1612 139.636 11.0412C140.619 11.9065 141.11 13.2192 141.11 14.9792V21.7332H137.898V20.2592C137.253 21.3592 136.05 21.9092 134.29 21.9092C133.381 21.9092 132.589 21.7552 131.914 21.4472C131.254 21.1392 130.748 20.7138 130.396 20.1712C130.044 19.6285 129.868 19.0125 129.868 18.3232C129.868 17.2232 130.279 16.3578 131.1 15.7272C131.936 15.0965 133.22 14.7812 134.95 14.7812H137.678C137.678 14.0332 137.451 13.4612 136.996 13.0652C136.542 12.6545 135.86 12.4492 134.95 12.4492C134.32 12.4492 133.696 12.5518 133.08 12.7572C132.479 12.9478 131.966 13.2118 131.54 13.5492L130.308 11.1512C130.954 10.6965 131.724 10.3445 132.618 10.0952C133.528 9.84585 134.459 9.72118 135.412 9.72118ZM135.148 19.5992C135.735 19.5992 136.256 19.4672 136.71 19.2032C137.165 18.9245 137.488 18.5212 137.678 17.9932V16.7832H135.324C133.916 16.7832 133.212 17.2452 133.212 18.1692C133.212 18.6092 133.381 18.9612 133.718 19.2252C134.07 19.4745 134.547 19.5992 135.148 19.5992Z" fill="black"/>
<path d="M157.916 11.4592C158.327 10.8872 158.877 10.4545 159.566 10.1612C160.27 9.86785 161.077 9.72118 161.986 9.72118V12.8892C161.605 12.8598 161.348 12.8452 161.216 12.8452C160.234 12.8452 159.464 13.1238 158.906 13.6812C158.349 14.2238 158.07 15.0452 158.07 16.1452V21.7332H154.638V9.89718H157.916V11.4592Z" fill="black"/>
<path d="M186.232 15.8592C186.232 15.9032 186.21 16.2112 186.166 16.7832H177.212C177.374 17.5165 177.755 18.0958 178.356 18.5212C178.958 18.9465 179.706 19.1592 180.6 19.1592C181.216 19.1592 181.759 19.0712 182.228 18.8952C182.712 18.7045 183.16 18.4112 183.57 18.0152L185.396 19.9952C184.282 21.2712 182.654 21.9092 180.512 21.9092C179.178 21.9092 177.997 21.6525 176.97 21.1392C175.944 20.6112 175.152 19.8852 174.594 18.9612C174.037 18.0372 173.758 16.9885 173.758 15.8152C173.758 14.6565 174.03 13.6152 174.572 12.6912C175.13 11.7525 175.885 11.0265 176.838 10.5132C177.806 9.98518 178.884 9.72118 180.072 9.72118C181.231 9.72118 182.28 9.97051 183.218 10.4692C184.157 10.9678 184.89 11.6865 185.418 12.6252C185.961 13.5492 186.232 14.6272 186.232 15.8592ZM180.094 12.3172C179.317 12.3172 178.664 12.5372 178.136 12.9772C177.608 13.4172 177.286 14.0185 177.168 14.7812H182.998C182.881 14.0332 182.558 13.4392 182.03 12.9992C181.502 12.5445 180.857 12.3172 180.094 12.3172Z" fill="black"/>
</svg>
