<svg width="188" height="28" viewBox="0 0 188 28" fill="none" xmlns="http://www.w3.org/2000/svg">
<path d="M36.5287 3.996C35.7301 3.33919 34.795 2.86895 33.7915 2.61959C32.7881 2.37022 31.7416 2.34802 30.7284 2.5546C29.3794 2.82709 28.1417 3.49418 27.1724 4.47121C26.2031 5.44824 25.5459 6.69118 25.2841 8.04233C25.0929 9.0554 25.1277 10.0982 25.3858 11.0963C25.644 12.0944 26.1192 13.0233 26.7776 13.8166C27.3886 14.5061 27.7389 15.3878 27.7675 16.3086V18.9136C27.7675 19.6045 28.0419 20.267 28.5304 20.7555C29.019 21.2441 29.6815 21.5185 30.3724 21.5185H33.8457C34.5365 21.5185 35.1991 21.2441 35.6876 20.7555C36.1761 20.267 36.4506 19.6045 36.4506 18.9136V16.4736C36.4797 15.457 36.8532 14.4804 37.5099 13.7037C38.6605 12.2804 39.2029 10.4604 39.0192 8.6394C38.8355 6.81838 37.9405 5.14346 36.5287 3.97863V3.996ZM34.714 18.9136C34.714 19.1439 34.6225 19.3647 34.4596 19.5276C34.2968 19.6904 34.0759 19.7819 33.8457 19.7819H30.3724C30.1421 19.7819 29.9213 19.6904 29.7584 19.5276C29.5956 19.3647 29.5041 19.1439 29.5041 18.9136V18.0453H34.714V18.9136ZM36.164 12.627C35.291 13.6626 34.7816 14.9559 34.714 16.3086H32.9773V13.7037C32.9773 13.4734 32.8859 13.2526 32.723 13.0897C32.5602 12.9269 32.3393 12.8354 32.109 12.8354C31.8787 12.8354 31.6579 12.9269 31.495 13.0897C31.3322 13.2526 31.2407 13.4734 31.2407 13.7037V16.3086H29.5041C29.4812 14.9785 28.9891 13.6992 28.1148 12.6965C27.5379 12.0053 27.15 11.1764 26.9889 10.2907C26.8277 9.40494 26.8989 8.49256 27.1953 7.6425C27.4918 6.79243 28.0035 6.0337 28.6805 5.44028C29.3576 4.84686 30.1768 4.43901 31.0584 4.25649C31.816 4.10049 32.5989 4.11517 33.3502 4.29944C34.1014 4.48372 34.8022 4.83298 35.4017 5.32187C36.0012 5.81075 36.4843 6.42699 36.8159 7.12584C37.1475 7.82469 37.3193 8.58862 37.3189 9.36216C37.3253 10.5516 36.917 11.7061 36.164 12.627Z" fill="#CC5E00"/>
<path d="M7.04856 21.7823C5.83123 21.7823 4.65056 21.621 3.50656 21.2983C2.37723 20.961 1.4679 20.5283 0.778564 20.0003L1.98856 17.3163C2.64856 17.8003 3.43323 18.189 4.34256 18.4823C5.2519 18.7757 6.16123 18.9223 7.07056 18.9223C8.08256 18.9223 8.83056 18.7757 9.31456 18.4823C9.79856 18.1743 10.0406 17.771 10.0406 17.2723C10.0406 16.9057 9.8939 16.605 9.60056 16.3703C9.3219 16.121 8.95523 15.923 8.50056 15.7763C8.06056 15.6297 7.45923 15.4683 6.69656 15.2923C5.52323 15.0137 4.56256 14.735 3.81456 14.4563C3.06656 14.1777 2.42123 13.7303 1.87856 13.1143C1.35056 12.4983 1.08656 11.677 1.08656 10.6503C1.08656 9.75567 1.32856 8.949 1.81256 8.23034C2.29656 7.497 3.02256 6.91767 3.99056 6.49234C4.97323 6.067 6.16856 5.85434 7.57656 5.85434C8.55923 5.85434 9.5199 5.97167 10.4586 6.20634C11.3972 6.441 12.2186 6.77834 12.9226 7.21834L11.8226 9.92434C10.3999 9.11767 8.97723 8.71434 7.55456 8.71434C6.55723 8.71434 5.81656 8.87567 5.33256 9.19834C4.86323 9.521 4.62856 9.94634 4.62856 10.4743C4.62856 11.0023 4.8999 11.3983 5.44256 11.6623C5.9999 11.9117 6.84323 12.161 7.97256 12.4103C9.1459 12.689 10.1066 12.9677 10.8546 13.2463C11.6026 13.525 12.2406 13.965 12.7686 14.5663C13.3112 15.1677 13.5826 15.9817 13.5826 17.0083C13.5826 17.8883 13.3332 18.695 12.8346 19.4283C12.3506 20.147 11.6172 20.719 10.6346 21.1443C9.6519 21.5697 8.45656 21.7823 7.04856 21.7823Z" fill="white"/>
<path d="M56.3582 21.6943C55.0969 21.6943 53.9602 21.4377 52.9482 20.9243C51.9509 20.3963 51.1662 19.6703 50.5942 18.7463C50.0369 17.8223 49.7582 16.7737 49.7582 15.6003C49.7582 14.427 50.0369 13.3783 50.5942 12.4543C51.1662 11.5303 51.9509 10.8117 52.9482 10.2983C53.9602 9.77034 55.0969 9.50634 56.3582 9.50634C57.6049 9.50634 58.6902 9.77034 59.6142 10.2983C60.5529 10.8117 61.2349 11.5523 61.6602 12.5203L58.9982 13.9503C58.3822 12.865 57.4949 12.3223 56.3362 12.3223C55.4416 12.3223 54.7009 12.6157 54.1142 13.2023C53.5276 13.789 53.2342 14.5883 53.2342 15.6003C53.2342 16.6123 53.5276 17.4117 54.1142 17.9983C54.7009 18.585 55.4416 18.8783 56.3362 18.8783C57.5096 18.8783 58.3969 18.3357 58.9982 17.2503L61.6602 18.7023C61.2349 19.641 60.5529 20.3743 59.6142 20.9023C58.6902 21.4303 57.6049 21.6943 56.3582 21.6943Z" fill="white"/>
<path d="M80.8322 9.50634C82.2989 9.50634 83.4796 9.94634 84.3742 10.8263C85.2836 11.7063 85.7382 13.0117 85.7382 14.7423V21.5183H82.3062V15.2703C82.3062 14.3317 82.1009 13.635 81.6902 13.1803C81.2796 12.711 80.6856 12.4763 79.9082 12.4763C79.0429 12.4763 78.3536 12.7477 77.8402 13.2903C77.3269 13.8183 77.0702 14.6103 77.0702 15.6663V21.5183H73.6382V5.19434H77.0702V10.9143C77.5249 10.4597 78.0749 10.115 78.7202 9.88034C79.3656 9.631 80.0696 9.50634 80.8322 9.50634Z" fill="white"/>
<path d="M118.646 9.68234L114.356 21.5183H111.056L108.394 14.1703L105.644 21.5183H102.344L98.0762 9.68234H101.31L104.104 17.6903L107.008 9.68234H109.912L112.728 17.6903L115.61 9.68234H118.646Z" fill="white"/>
<path d="M135.412 9.50634C137.246 9.50634 138.654 9.94634 139.636 10.8263C140.619 11.6917 141.11 13.0043 141.11 14.7643V21.5183H137.898V20.0443C137.253 21.1443 136.05 21.6943 134.29 21.6943C133.381 21.6943 132.589 21.5403 131.914 21.2323C131.254 20.9243 130.748 20.499 130.396 19.9563C130.044 19.4137 129.868 18.7977 129.868 18.1083C129.868 17.0083 130.279 16.143 131.1 15.5123C131.936 14.8817 133.22 14.5663 134.95 14.5663H137.678C137.678 13.8183 137.451 13.2463 136.996 12.8503C136.542 12.4397 135.86 12.2343 134.95 12.2343C134.32 12.2343 133.696 12.337 133.08 12.5423C132.479 12.733 131.966 12.997 131.54 13.3343L130.308 10.9363C130.954 10.4817 131.724 10.1297 132.618 9.88034C133.528 9.631 134.459 9.50634 135.412 9.50634ZM135.148 19.3843C135.735 19.3843 136.256 19.2523 136.71 18.9883C137.165 18.7097 137.488 18.3063 137.678 17.7783V16.5683H135.324C133.916 16.5683 133.212 17.0303 133.212 17.9543C133.212 18.3943 133.381 18.7463 133.718 19.0103C134.07 19.2597 134.547 19.3843 135.148 19.3843Z" fill="white"/>
<path d="M157.916 11.2443C158.327 10.6723 158.877 10.2397 159.566 9.94634C160.27 9.653 161.077 9.50634 161.986 9.50634V12.6743C161.605 12.645 161.348 12.6303 161.216 12.6303C160.234 12.6303 159.464 12.909 158.906 13.4663C158.349 14.009 158.07 14.8303 158.07 15.9303V21.5183H154.638V9.68234H157.916V11.2443Z" fill="white"/>
<path d="M186.232 15.6443C186.232 15.6883 186.21 15.9963 186.166 16.5683H177.212C177.374 17.3017 177.755 17.881 178.356 18.3063C178.958 18.7317 179.706 18.9443 180.6 18.9443C181.216 18.9443 181.759 18.8563 182.228 18.6803C182.712 18.4897 183.16 18.1963 183.57 17.8003L185.396 19.7803C184.282 21.0563 182.654 21.6943 180.512 21.6943C179.178 21.6943 177.997 21.4377 176.97 20.9243C175.944 20.3963 175.152 19.6703 174.594 18.7463C174.037 17.8223 173.758 16.7737 173.758 15.6003C173.758 14.4417 174.03 13.4003 174.572 12.4763C175.13 11.5377 175.885 10.8117 176.838 10.2983C177.806 9.77034 178.884 9.50634 180.072 9.50634C181.231 9.50634 182.28 9.75567 183.218 10.2543C184.157 10.753 184.89 11.4717 185.418 12.4103C185.961 13.3343 186.232 14.4123 186.232 15.6443ZM180.094 12.1023C179.317 12.1023 178.664 12.3223 178.136 12.7623C177.608 13.2023 177.286 13.8037 177.168 14.5663H182.998C182.881 13.8183 182.558 13.2243 182.03 12.7843C181.502 12.3297 180.857 12.1023 180.094 12.1023Z" fill="white"/>
</svg>
