<svg width="42" height="65" viewBox="0 0 42 65" fill="none" xmlns="http://www.w3.org/2000/svg">
<path d="M6.99208 35.2491V35.0455L6.84985 34.8998C4.13924 32.1234 2.30741 28.6093 1.5835 24.7972C0.859588 20.9851 1.27572 17.0442 2.77985 13.4674C4.28399 9.89057 6.80934 6.83662 10.0401 4.68754C13.2706 2.53857 17.063 1.38975 20.943 1.38477C24.823 1.38975 28.6154 2.53857 31.846 4.68754C35.0767 6.83662 37.602 9.89057 39.1062 13.4674C40.6103 17.0442 41.0264 20.9851 40.3025 24.7972C39.5786 28.6093 37.7468 32.1234 35.0362 34.8998L34.894 35.0455V35.2491V61.5787V61.5797C34.8948 61.9859 34.792 62.3856 34.5955 62.7411C34.3991 63.0963 34.1155 63.3956 33.7714 63.6109C33.3913 63.8462 32.9528 63.9703 32.5057 63.9689C32.1319 63.9665 31.7639 63.8764 31.4312 63.706L31.4312 63.706L31.4263 63.7035L21.1661 58.5879L20.943 58.4766L20.7199 58.5879L10.4597 63.7035L10.4578 63.7045C10.094 63.8878 9.6893 63.9751 9.28222 63.9581C8.87513 63.941 8.47916 63.8202 8.13191 63.607C7.78467 63.3939 7.49767 63.0955 7.29817 62.7403C7.0988 62.3852 6.99344 61.9851 6.99208 61.5779V35.2491ZM29.3907 57.3442L30.1136 57.7042V56.8966V39.3821V38.593L29.4001 38.9299C27.616 39.7724 25.7157 40.3425 23.7626 40.6212L23.3332 40.6825V41.1162V44.2376C23.3332 44.8715 23.0814 45.4795 22.6331 45.9277C22.1849 46.3759 21.5769 46.6278 20.943 46.6278C20.3091 46.6278 19.7011 46.3759 19.2529 45.9277C18.8047 45.4795 18.5528 44.8715 18.5528 44.2376V41.1162V40.6825L18.1235 40.6212C16.1703 40.3425 14.27 39.7724 12.4859 38.9299L11.7725 38.593V39.3821V56.8966V57.7042L12.4954 57.3442L19.8653 53.6736L19.8674 53.6726C20.2011 53.5045 20.5694 53.4169 20.943 53.4169C21.3166 53.4169 21.685 53.5045 22.0186 53.6726L22.0207 53.6736L29.3907 57.3442ZM12.6367 33.5473C15.0954 35.1902 17.986 36.067 20.943 36.067C24.9083 36.067 28.7111 34.4918 31.5149 31.688C34.3188 28.8841 35.894 25.0813 35.894 21.1161C35.894 18.1591 35.0171 15.2685 33.3743 12.8098C31.7314 10.3511 29.3964 8.43481 26.6645 7.30321C23.9326 6.17161 20.9264 5.87553 18.0262 6.45242C15.126 7.0293 12.462 8.45324 10.3711 10.5442C8.28018 12.6351 6.85624 15.2991 6.27936 18.1993C5.70247 21.0995 5.99855 24.1056 7.13015 26.8376C8.26175 29.5695 10.1781 31.9045 12.6367 33.5473Z" fill="#E89071" stroke="black"/>
<path d="M20.9429 13.1893L22.6991 18.5942C22.8329 19.0063 23.2169 19.2852 23.6501 19.2852H29.3332L24.7355 22.6256C24.385 22.8803 24.2383 23.3316 24.3722 23.7437L26.1284 29.1486L21.5307 25.8082C21.1802 25.5535 20.7056 25.5535 20.3551 25.8082L15.7574 29.1486L17.5136 23.7437C17.6475 23.3316 17.5008 22.8803 17.1503 22.6256L12.5526 19.2852L18.2357 19.2852C18.6689 19.2852 19.0529 19.0063 19.1867 18.5942L20.9429 13.1893Z" fill="#E89071" stroke="black"/>
</svg>
