<svg width="29" height="23" viewBox="0 0 29 23" fill="none" xmlns="http://www.w3.org/2000/svg">
<path d="M22.1018 0.990723H6.10181C4.51051 0.990723 2.98438 1.62286 1.85917 2.74808C0.733948 3.8733 0.101807 5.39942 0.101807 6.99072V16.9907C0.101807 18.582 0.733948 20.1081 1.85917 21.2334C2.98438 22.3586 4.51051 22.9907 6.10181 22.9907H22.1018C23.6931 22.9907 25.2192 22.3586 26.3444 21.2334C27.4697 20.1081 28.1018 18.582 28.1018 16.9907V6.99072C28.1018 5.39942 27.4697 3.8733 26.3444 2.74808C25.2192 1.62286 23.6931 0.990723 22.1018 0.990723ZM21.2618 4.99072L15.5018 10.8307C15.1279 11.1972 14.6253 11.4024 14.1018 11.4024C13.5783 11.4024 13.0757 11.1972 12.7018 10.8307L6.94181 4.99072H21.2618ZM24.1018 16.9907C24.1018 17.5212 23.8911 18.0299 23.516 18.4049C23.1409 18.78 22.6322 18.9907 22.1018 18.9907H6.10181C5.57137 18.9907 5.06267 18.78 4.68759 18.4049C4.31252 18.0299 4.10181 17.5212 4.10181 16.9907V7.81072L9.86181 13.5707C10.9868 14.6943 12.5118 15.3254 14.1018 15.3254C15.6918 15.3254 17.2168 14.6943 18.3418 13.5707L24.1018 7.81072V16.9907Z" fill="white"/>
</svg>
