<svg width="64" height="65" viewBox="0 0 64 65" fill="none" xmlns="http://www.w3.org/2000/svg">
<path d="M60.7815 39.0161H57.6025V7.22656H60.7815C61.6246 7.22656 62.4332 6.89164 63.0294 6.29547C63.6255 5.6993 63.9605 4.89072 63.9605 4.04761C63.9605 3.2045 63.6255 2.39592 63.0294 1.79975C62.4332 1.20358 61.6246 0.868652 60.7815 0.868652H3.5603C2.71719 0.868652 1.90861 1.20358 1.31244 1.79975C0.716272 2.39592 0.381348 3.2045 0.381348 4.04761C0.381348 4.89072 0.716272 5.6993 1.31244 6.29547C1.90861 6.89164 2.71719 7.22656 3.5603 7.22656H6.73926V39.0161H3.5603C2.71719 39.0161 1.90861 39.351 1.31244 39.9472C0.716272 40.5434 0.381348 41.352 0.381348 42.1951C0.381348 43.0382 0.716272 43.8468 1.31244 44.4429C1.90861 45.0391 2.71719 45.374 3.5603 45.374H28.9919V49.0298L14.5277 58.5667C13.9343 58.934 13.4783 59.4864 13.2299 60.1386C12.9816 60.7908 12.9549 61.5067 13.1537 62.1756C13.3526 62.8446 13.7661 63.4295 14.3304 63.8401C14.8947 64.2508 15.5784 64.4643 16.2761 64.4478C16.9011 64.4549 17.5126 64.2659 18.0245 63.9073L28.9919 56.6593V61.2688C28.9919 62.1119 29.3269 62.9205 29.923 63.5167C30.5192 64.1128 31.3278 64.4478 32.1709 64.4478C33.014 64.4478 33.8226 64.1128 34.4188 63.5167C35.0149 62.9205 35.3499 62.1119 35.3499 61.2688V56.6593L46.3173 63.9073C46.8292 64.2659 47.4407 64.4549 48.0657 64.4478C48.7449 64.4425 49.4045 64.2199 49.9479 63.8125C50.4914 63.4051 50.8901 62.8343 51.0856 62.1839C51.2811 61.5334 51.2631 60.8375 51.0343 60.198C50.8055 59.5585 50.3779 59.0091 49.8141 58.6303L35.3499 49.0934V45.374H60.7815C61.6246 45.374 62.4332 45.0391 63.0294 44.4429C63.6255 43.8468 63.9605 43.0382 63.9605 42.1951C63.9605 41.352 63.6255 40.5434 63.0294 39.9472C62.4332 39.351 61.6246 39.0161 60.7815 39.0161ZM51.2446 39.0161H13.0972V7.22656H51.2446V39.0161ZM24.5732 33.4847C25.4205 33.9853 26.3866 34.2494 27.3707 34.2494C28.3548 34.2494 29.3209 33.9853 30.1682 33.4847L39.705 27.9534C40.5203 27.4529 41.1937 26.7518 41.6609 25.917C42.128 25.0822 42.3733 24.1416 42.3733 23.1849C42.3733 22.2283 42.128 21.2876 41.6609 20.4528C41.1937 19.618 40.5203 18.9169 39.705 18.4165L30.1682 12.8851C29.3209 12.3845 28.3548 12.1204 27.3707 12.1204C26.3866 12.1204 25.4205 12.3845 24.5732 12.8851C23.7194 13.3664 23.0117 14.0696 22.5248 14.9202C22.0379 15.7708 21.7901 16.7372 21.8075 17.7171V28.7799C21.8128 29.7383 22.0714 30.6783 22.5571 31.5045C23.0428 32.3308 23.7384 33.0139 24.5732 33.4847ZM28.1654 18.9251L35.3499 23.1213L28.1018 27.3176L28.1654 18.9251Z" fill="#306BF3"/>
</svg>
