<svg width="23" height="24" viewBox="0 0 23 24" fill="none" xmlns="http://www.w3.org/2000/svg">
<path d="M22.509 2.08078C22.4077 1.77701 22.1039 1.47323 21.8002 1.37197C17.5473 0.258128 13.1932 1.57449 10.2567 5.01728L9.14284 6.33365L6.40886 5.72609C5.09249 5.2198 3.67487 5.82735 3.06732 7.04246L0.839632 10.9915C0.637115 11.2953 0.637115 11.5991 0.839632 11.9029C0.940891 12.2066 1.24467 12.4092 1.54844 12.5104L4.68746 13.2192C4.38368 14.0293 4.28243 14.8394 4.07991 15.6494C4.07991 15.9532 4.18117 16.257 4.38368 16.4595L7.5227 19.5985C7.72522 19.801 7.92774 19.9023 8.23151 19.9023H8.33277C9.2441 19.801 10.0542 19.6998 10.8642 19.396L11.4718 22.4338C11.573 22.7375 11.7756 23.0413 12.0793 23.1426C12.1806 23.2438 12.3831 23.2438 12.4844 23.2438C12.6869 23.2438 12.7882 23.2438 12.9907 23.1426L16.9398 20.9149C18.0536 20.3073 18.6612 18.8897 18.3574 17.5734L17.6486 14.7381L18.8637 13.6243C22.2052 10.789 23.6228 6.23239 22.509 2.08078ZM7.01641 8.86511C6.40886 9.67518 5.80131 10.4853 5.39627 11.2953L3.26984 10.789L4.78872 8.05504C4.99124 7.65001 5.39627 7.54875 5.90256 7.65001L7.62396 8.05504L7.01641 8.86511ZM15.8259 19.0922L13.0919 20.6111L12.6869 18.5859C13.5982 18.1809 14.4083 17.5734 15.1171 16.9658L15.8259 16.257L16.2309 17.9784C16.4335 18.4847 16.1297 18.991 15.8259 19.0922ZM16.5347 8.86511C15.7247 8.86511 15.0158 8.1563 15.0158 7.34623C15.0158 6.53616 15.7247 5.82735 16.5347 5.82735C17.3448 5.82735 18.0536 6.53616 18.0536 7.34623C18.0536 8.1563 17.4461 8.86511 16.5347 8.86511Z" fill="#F9E4E6"/>
</svg>
