<svg width="21" height="20" viewBox="0 0 21 20" fill="none" xmlns="http://www.w3.org/2000/svg">
<path d="M20.1185 11.2106C19.9742 11.0913 19.7992 11.0149 19.6136 10.9902C19.428 10.9654 19.2391 10.9933 19.0685 11.0706C18.0111 11.5545 16.8614 11.8035 15.6985 11.8006C13.5474 11.798 11.4845 10.945 9.95967 9.4277C8.43483 7.91036 7.57172 5.85171 7.55853 3.7006C7.56309 3.02643 7.647 2.35515 7.80853 1.7006C7.84281 1.52614 7.82995 1.34569 7.77128 1.17785C7.71262 1.01002 7.61027 0.860852 7.47477 0.745732C7.33928 0.630612 7.17554 0.553698 7.00043 0.522915C6.82532 0.492132 6.64516 0.508592 6.47853 0.5706C4.91085 1.27551 3.5481 2.36736 2.51829 3.74358C1.48848 5.11981 0.825409 6.73523 0.591378 8.43809C0.357347 10.1409 0.560035 11.8754 1.1804 13.4784C1.80076 15.0814 2.81844 16.5004 4.13783 17.6021C5.45722 18.7038 7.03501 19.452 8.72297 19.7764C10.4109 20.1009 12.1537 19.9909 13.7875 19.4568C15.4213 18.9228 16.8925 17.9822 18.0629 16.7234C19.2334 15.4646 20.0646 13.9289 20.4785 12.2606C20.5289 12.0696 20.5217 11.8679 20.4576 11.6811C20.3935 11.4942 20.2755 11.3305 20.1185 11.2106ZM10.6185 17.9006C8.94029 17.8888 7.30673 17.3585 5.94152 16.3823C4.57631 15.4062 3.54619 14.0319 2.99221 12.4477C2.43823 10.8635 2.38746 9.14679 2.84687 7.5326C3.30627 5.91842 4.25339 4.4857 5.55853 3.4306V3.7006C5.56118 6.38908 6.63034 8.96669 8.53139 10.8677C10.4324 12.7688 13.01 13.838 15.6985 13.8406C16.4044 13.8432 17.1085 13.7694 17.7985 13.6206C17.1084 14.9261 16.075 16.0184 14.8097 16.7797C13.5444 17.541 12.0952 17.9424 10.6185 17.9406V17.9006Z" fill="black"/>
</svg>
