<svg width="68" height="68" viewBox="0 0 68 68" fill="none" xmlns="http://www.w3.org/2000/svg">
<path d="M33.829 0.888672C27.3657 0.900952 21.0454 2.79253 15.638 6.33301C10.2306 9.8735 5.96944 14.9101 3.37361 20.8292C0.77779 26.7484 -0.0406931 33.2948 1.01786 39.6708C2.07641 46.0469 4.96631 51.9776 9.33555 56.7404C12.4561 60.123 16.2435 62.8226 20.459 64.669C24.6746 66.5154 29.2269 67.4687 33.829 67.4687C38.4312 67.4687 42.9835 66.5154 47.199 64.669C51.4145 62.8226 55.2019 60.123 58.3225 56.7404C62.6917 51.9776 65.5816 46.0469 66.6402 39.6708C67.6987 33.2948 66.8802 26.7484 64.2844 20.8292C61.6886 14.9101 57.4275 9.8735 52.0201 6.33301C46.6127 2.79253 40.2924 0.900952 33.829 0.888672ZM33.829 60.8727C26.9257 60.8622 20.2957 58.1743 15.334 53.3747C16.8404 49.7074 19.403 46.5708 22.6962 44.3634C25.9894 42.1559 29.8644 40.9773 33.829 40.9773C37.7936 40.9773 41.6687 42.1559 44.9619 44.3634C48.2551 46.5708 50.8177 49.7074 52.3241 53.3747C47.3624 58.1743 40.7323 60.8622 33.829 60.8727ZM27.1641 27.5482C27.1641 26.23 27.555 24.9415 28.2874 23.8454C29.0197 22.7494 30.0606 21.8951 31.2785 21.3907C32.4963 20.8862 33.8364 20.7542 35.1293 21.0114C36.4221 21.2686 37.6097 21.9033 38.5418 22.8354C39.4739 23.7675 40.1087 24.9551 40.3658 26.248C40.623 27.5408 40.491 28.8809 39.9866 30.0988C39.4821 31.3166 38.6279 32.3575 37.5318 33.0899C36.4358 33.8222 35.1472 34.2131 33.829 34.2131C32.0614 34.2131 30.3661 33.5109 29.1162 32.261C27.8663 31.0111 27.1641 29.3159 27.1641 27.5482ZM56.8562 47.5429C53.8788 42.4501 49.2962 38.4887 43.8264 36.2792C45.5231 34.3553 46.6287 31.9826 47.0104 29.4458C47.3921 26.9091 47.0337 24.3161 45.9783 21.978C44.9228 19.6399 43.2151 17.6561 41.0601 16.2645C38.9051 14.8728 36.3943 14.1326 33.829 14.1326C31.2637 14.1326 28.7529 14.8728 26.5979 16.2645C24.4429 17.6561 22.7352 19.6399 21.6798 21.978C20.6243 24.3161 20.2659 26.9091 20.6476 29.4458C21.0293 31.9826 22.1349 34.3553 23.8317 36.2792C18.3618 38.4887 13.7793 42.4501 10.8018 47.5429C8.42894 43.501 7.1752 38.9001 7.16946 34.2131C7.16946 27.1426 9.97823 20.3616 14.9779 15.362C19.9775 10.3623 26.7585 7.55356 33.829 7.55356C40.8996 7.55356 47.6805 10.3623 52.6802 15.362C57.6798 20.3616 60.4886 27.1426 60.4886 34.2131C60.4828 38.9001 59.2291 43.501 56.8562 47.5429Z" fill="#2ACAE0"/>
</svg>
