<svg width="21" height="21" viewBox="0 0 21 21" fill="none" xmlns="http://www.w3.org/2000/svg">
<path d="M3.50427 10.0186C3.50427 9.75334 3.39892 9.49898 3.21138 9.31145C3.02384 9.12391 2.76949 9.01855 2.50427 9.01855H1.50427C1.23906 9.01855 0.984702 9.12391 0.797166 9.31145C0.609629 9.49898 0.504272 9.75334 0.504272 10.0186C0.504272 10.2838 0.609629 10.5381 0.797166 10.7257C0.984702 10.9132 1.23906 11.0186 1.50427 11.0186H2.50427C2.76949 11.0186 3.02384 10.9132 3.21138 10.7257C3.39892 10.5381 3.50427 10.2838 3.50427 10.0186ZM4.14427 15.0186L3.43427 15.7286C3.24802 15.9159 3.14348 16.1694 3.14348 16.4336C3.14348 16.6977 3.24802 16.9512 3.43427 17.1386C3.62163 17.3248 3.87509 17.4293 4.13927 17.4293C4.40346 17.4293 4.65691 17.3248 4.84427 17.1386L5.55427 16.4286C5.7181 16.2373 5.80371 15.9912 5.79398 15.7395C5.78426 15.4878 5.67993 15.2491 5.50184 15.071C5.32374 14.8929 5.085 14.7886 4.83333 14.7788C4.58165 14.7691 4.33557 14.8547 4.14427 15.0186ZM10.5043 3.01855C10.7695 3.01855 11.0238 2.9132 11.2114 2.72566C11.3989 2.53812 11.5043 2.28377 11.5043 2.01855V1.01855C11.5043 0.753338 11.3989 0.498984 11.2114 0.311448C11.0238 0.123911 10.7695 0.0185547 10.5043 0.0185547C10.2391 0.0185547 9.9847 0.123911 9.79717 0.311448C9.60963 0.498984 9.50427 0.753338 9.50427 1.01855V2.01855C9.50427 2.28377 9.60963 2.53812 9.79717 2.72566C9.9847 2.9132 10.2391 3.01855 10.5043 3.01855ZM16.1643 5.35855C16.4266 5.35745 16.678 5.2533 16.8643 5.06855L17.5743 4.35855C17.679 4.26891 17.764 4.15859 17.824 4.03452C17.884 3.91046 17.9178 3.77533 17.9231 3.63761C17.9284 3.49989 17.9052 3.36256 17.8549 3.23423C17.8046 3.10591 17.7284 2.98936 17.6309 2.8919C17.5335 2.79445 17.4169 2.71819 17.2886 2.66792C17.1603 2.61764 17.0229 2.59444 16.8852 2.59976C16.7475 2.60508 16.6124 2.63881 16.4883 2.69883C16.3642 2.75885 16.2539 2.84387 16.1643 2.94855L15.5043 3.65855C15.318 3.84592 15.2135 4.09937 15.2135 4.36355C15.2135 4.62774 15.318 4.88119 15.5043 5.06855C15.6806 5.24392 15.9159 5.34731 16.1643 5.35855ZM4.16427 5.06855C4.35053 5.2533 4.60193 5.35745 4.86427 5.35855C4.99588 5.35932 5.12634 5.33409 5.24818 5.28433C5.37002 5.23456 5.48083 5.16124 5.57427 5.06855C5.76052 4.88119 5.86507 4.62774 5.86507 4.36355C5.86507 4.09937 5.76052 3.84592 5.57427 3.65855L4.86427 2.94855C4.77169 2.85466 4.66152 2.77992 4.54005 2.7286C4.41859 2.67728 4.2882 2.65039 4.15634 2.64946C4.02448 2.64853 3.89373 2.67359 3.77156 2.72319C3.64938 2.77279 3.53817 2.84597 3.44427 2.93855C3.35038 3.03114 3.27564 3.14131 3.22432 3.26277C3.173 3.38424 3.14611 3.51462 3.14518 3.64648C3.14331 3.91279 3.24729 4.16893 3.43427 4.35855L4.16427 5.06855ZM19.5043 9.01855H18.5043C18.2391 9.01855 17.9847 9.12391 17.7972 9.31145C17.6096 9.49898 17.5043 9.75334 17.5043 10.0186C17.5043 10.2838 17.6096 10.5381 17.7972 10.7257C17.9847 10.9132 18.2391 11.0186 18.5043 11.0186H19.5043C19.7695 11.0186 20.0238 10.9132 20.2114 10.7257C20.3989 10.5381 20.5043 10.2838 20.5043 10.0186C20.5043 9.75334 20.3989 9.49898 20.2114 9.31145C20.0238 9.12391 19.7695 9.01855 19.5043 9.01855ZM16.8643 15.0186C16.6743 14.9129 16.455 14.872 16.2397 14.9021C16.0244 14.9322 15.8248 15.0316 15.6711 15.1854C15.5173 15.3391 15.4179 15.5387 15.3878 15.754C15.3577 15.9693 15.3986 16.1886 15.5043 16.3786L16.2143 17.0886C16.4016 17.2748 16.6551 17.3793 16.9193 17.3793C17.1835 17.3793 17.4369 17.2748 17.6243 17.0886C17.8105 16.9012 17.9151 16.6477 17.9151 16.3836C17.9151 16.1194 17.8105 15.8659 17.6243 15.6786L16.8643 15.0186ZM10.5043 4.51855C9.41648 4.51855 8.35311 4.84112 7.44864 5.44547C6.54417 6.04982 5.83922 6.9088 5.42294 7.9138C5.00665 8.91879 4.89773 10.0247 5.10995 11.0916C5.32217 12.1584 5.846 13.1385 6.61518 13.9076C7.38437 14.6768 8.36438 15.2007 9.43128 15.4129C10.4982 15.6251 11.604 15.5162 12.609 15.0999C13.614 14.6836 14.473 13.9787 15.0774 13.0742C15.6817 12.1697 16.0043 11.1064 16.0043 10.0186C16.0016 8.56068 15.4213 7.16326 14.3904 6.13239C13.3596 5.10151 11.9622 4.5212 10.5043 4.51855ZM10.5043 13.5186C9.81204 13.5186 9.13535 13.3133 8.55978 12.9287C7.9842 12.5441 7.5356 11.9975 7.27069 11.3579C7.00579 10.7184 6.93648 10.0147 7.07152 9.33574C7.20657 8.65681 7.53992 8.03316 8.0294 7.54368C8.51888 7.0542 9.14252 6.72085 9.82146 6.58581C10.5004 6.45076 11.2041 6.52007 11.8437 6.78498C12.4832 7.04988 13.0298 7.49849 13.4144 8.07406C13.799 8.64963 14.0043 9.32632 14.0043 10.0186C14.0043 10.9468 13.6355 11.8371 12.9791 12.4934C12.3228 13.1498 11.4325 13.5186 10.5043 13.5186ZM10.5043 17.0186C10.2391 17.0186 9.9847 17.1239 9.79717 17.3114C9.60963 17.499 9.50427 17.7533 9.50427 18.0186V19.0186C9.50427 19.2838 9.60963 19.5381 9.79717 19.7257C9.9847 19.9132 10.2391 20.0186 10.5043 20.0186C10.7695 20.0186 11.0238 19.9132 11.2114 19.7257C11.3989 19.5381 11.5043 19.2838 11.5043 19.0186V18.0186C11.5043 17.7533 11.3989 17.499 11.2114 17.3114C11.0238 17.1239 10.7695 17.0186 10.5043 17.0186Z" fill="white"/>
</svg>
