<svg width="42" height="65" viewBox="0 0 42 65" fill="none" xmlns="http://www.w3.org/2000/svg">
<path d="M21.171 0.529297C17.1925 0.534285 13.3037 1.71222 9.99116 3.91576C6.67857 6.11931 4.08922 9.25064 2.54698 12.9181C1.00473 16.5856 0.578049 20.6264 1.32031 24.535C2.06256 28.4437 3.9408 32.0468 6.72011 34.8936V61.2232C6.7216 61.7159 6.84901 62.2 7.09023 62.6296C7.33146 63.0592 7.6785 63.42 8.09838 63.6777C8.51827 63.9354 8.99708 64.0815 9.48932 64.1021C9.98156 64.1228 10.4709 64.0172 10.9109 63.7955L21.171 58.6799L31.4312 63.7955C31.8339 64.0018 32.2794 64.1107 32.7318 64.1134C33.2729 64.1152 33.8036 63.965 34.2636 63.6799C34.6801 63.4196 35.0234 63.0574 35.2611 62.6276C35.4988 62.1977 35.623 61.7144 35.622 61.2232V34.8936C38.4013 32.0468 40.2795 28.4437 41.0218 24.535C41.764 20.6264 41.3374 16.5856 39.7951 12.9181C38.2529 9.25064 35.6635 6.11931 32.3509 3.91576C29.0383 1.71222 25.1496 0.534285 21.171 0.529297ZM29.8416 56.5411L22.4716 52.8706C22.0682 52.6673 21.6228 52.5614 21.171 52.5614C20.7193 52.5614 20.2739 52.6673 19.8705 52.8706L12.5005 56.5411V39.0266C14.3297 39.8904 16.2782 40.4749 18.2809 40.7607V43.8821C18.2809 44.6486 18.5854 45.3838 19.1274 45.9258C19.6694 46.4678 20.4045 46.7723 21.171 46.7723C21.9376 46.7723 22.6727 46.4678 23.2147 45.9258C23.7567 45.3838 24.0612 44.6486 24.0612 43.8821V40.7607C26.0639 40.4749 28.0124 39.8904 29.8416 39.0266V56.5411ZM21.171 35.2115C18.3129 35.2116 15.519 34.364 13.1425 32.7761C10.7661 31.1882 8.91388 28.9313 7.82012 26.2907C6.72636 23.6502 6.44018 20.7446 6.99778 17.9414C7.55537 15.1382 8.93169 12.5633 10.9527 10.5423C12.9737 8.52125 15.5486 7.14494 18.3518 6.58734C21.155 6.02975 24.0606 6.31593 26.7012 7.40968C29.3417 8.50344 31.5987 10.3557 33.1866 12.7321C34.7745 15.1085 35.622 17.9025 35.622 20.7606C35.622 24.5932 34.0995 28.2689 31.3894 30.979C28.6793 33.689 25.0037 35.2115 21.171 35.2115Z" fill="#306BF3"/>
<path d="M20.6954 12.6793C20.8451 12.2187 21.4968 12.2187 21.6465 12.6793L23.4026 18.0843C23.4696 18.2903 23.6615 18.4297 23.8781 18.4297H29.5612C30.0456 18.4297 30.2469 19.0496 29.8551 19.3343L25.2574 22.6747C25.0822 22.802 25.0088 23.0277 25.0758 23.2337L26.8319 28.6386C26.9816 29.0992 26.4544 29.4823 26.0625 29.1976L21.4648 25.8572C21.2896 25.7299 21.0523 25.7299 20.877 25.8572L16.2793 29.1976C15.8875 29.4823 15.3602 29.0992 15.5099 28.6386L17.2661 23.2337C17.333 23.0277 17.2597 22.802 17.0844 22.6747L12.4868 19.3343C12.0949 19.0496 12.2963 18.4297 12.7807 18.4297H18.4637C18.6803 18.4297 18.8723 18.2903 18.9392 18.0843L20.6954 12.6793Z" fill="#306BF3"/>
</svg>
