<svg width="27" height="23" viewBox="0 0 27 23" fill="none" xmlns="http://www.w3.org/2000/svg">
<path d="M26.456 2.52857C26.4561 2.32099 26.4013 2.11709 26.297 1.93762C26.1927 1.75816 26.0427 1.60954 25.8622 1.5069C25.6818 1.40427 25.4774 1.35128 25.2698 1.35335C25.0623 1.35541 24.859 1.41244 24.6806 1.51864C23.9928 1.92806 23.2522 2.24159 22.4795 2.45056C21.376 1.50364 19.9685 0.985467 18.5144 0.990763C16.9192 0.992599 15.3871 1.6143 14.2417 2.7246C13.0963 3.8349 12.4272 5.34687 12.3757 6.94126C9.23093 6.43977 6.38071 4.79835 4.36859 2.33002C4.24735 2.18293 4.09252 2.06715 3.91716 1.99245C3.74179 1.91774 3.55103 1.88631 3.36097 1.90079C3.17101 1.91643 2.98772 1.97811 2.82696 2.08048C2.66619 2.18286 2.53278 2.32286 2.43826 2.48838C1.95353 3.33429 1.67514 4.28259 1.62568 5.25629C1.57623 6.22998 1.75711 7.20161 2.15365 8.09228L2.15135 8.09457C1.97313 8.20434 1.82605 8.35799 1.72418 8.54084C1.62231 8.72369 1.56905 8.92962 1.5695 9.13893C1.56734 9.3116 1.5777 9.48419 1.60049 9.65536C1.72052 11.1341 2.37585 12.5182 3.44359 13.5481C3.37116 13.6861 3.32695 13.8372 3.31355 13.9925C3.30015 14.1477 3.31783 14.3041 3.36555 14.4525C3.83106 15.9028 4.82101 17.1273 6.14169 17.8862C4.79992 18.4051 3.35113 18.586 1.92297 18.413C1.65864 18.3798 1.39088 18.4375 1.16363 18.5765C0.936367 18.7155 0.763099 18.9276 0.672244 19.178C0.581389 19.4285 0.578341 19.7023 0.663601 19.9547C0.748861 20.2071 0.917366 20.423 1.14147 20.5671C3.59771 22.1491 6.45761 22.9902 9.37921 22.9898C12.6923 23.027 15.9249 21.9683 18.5741 19.9783C21.2233 17.9883 23.1405 15.1786 24.0276 11.9862C24.4425 10.5955 24.6544 9.1522 24.6565 7.70096C24.6565 7.62406 24.6565 7.54488 24.6554 7.4657C25.2689 6.80399 25.7443 6.02646 26.0535 5.17868C26.3627 4.3309 26.4995 3.42992 26.456 2.52857ZM22.5701 6.30314C22.376 6.5327 22.2778 6.82821 22.2958 7.12829C22.3073 7.3222 22.3061 7.51727 22.3061 7.70096C22.3037 8.9273 22.124 10.1469 21.7725 11.3218C21.048 14.0381 19.4329 16.4327 17.1859 18.122C14.9388 19.8114 12.1899 20.6979 9.37921 20.6394C8.36959 20.6397 7.36345 20.5211 6.38159 20.2859C7.63364 19.8824 8.80433 19.2604 9.83941 18.4486C10.0301 18.2985 10.1696 18.093 10.2388 17.8605C10.3081 17.6279 10.3037 17.3797 10.2263 17.1497C10.1488 16.9198 10.0021 16.7194 9.80625 16.5761C9.61041 16.4329 9.37504 16.3537 9.13243 16.3495C8.15565 16.3344 7.22291 15.9406 6.53073 15.2513C6.70633 15.218 6.88077 15.1767 7.05406 15.1273C7.30791 15.0551 7.53006 14.8995 7.68473 14.6856C7.83941 14.4717 7.91761 14.2121 7.90674 13.9483C7.89587 13.6846 7.79657 13.4323 7.62483 13.2318C7.45308 13.0314 7.21889 12.8946 6.95995 12.8435C6.39297 12.7315 5.85945 12.4903 5.40086 12.1386C4.94227 11.7869 4.57096 11.3342 4.3158 10.8156C4.52819 10.8446 4.74193 10.8626 4.95618 10.8696C5.2107 10.8734 5.45985 10.7962 5.6676 10.6491C5.87535 10.502 6.03094 10.2927 6.11185 10.0513C6.18939 9.80777 6.1854 9.54559 6.10049 9.30453C6.01557 9.06346 5.85437 8.85665 5.64132 8.71547C5.12442 8.3711 4.70099 7.90391 4.40898 7.35573C4.11696 6.80755 3.96546 6.1955 3.96806 5.5744C3.96806 5.49637 3.97036 5.41832 3.97495 5.34143C6.60884 7.79785 10.0252 9.2459 13.622 9.43046C13.8036 9.43761 13.9844 9.40341 14.1508 9.33045C14.3172 9.25748 14.4648 9.14766 14.5826 9.00927C14.6991 8.86955 14.7817 8.70467 14.8237 8.52763C14.8657 8.35059 14.866 8.16622 14.8247 7.98903C14.7575 7.70859 14.7232 7.42127 14.7225 7.13289C14.7236 6.12756 15.1234 5.16372 15.8343 4.45285C16.5452 3.74198 17.509 3.34215 18.5144 3.34109C19.0316 3.3397 19.5435 3.44556 20.0178 3.65198C20.492 3.85839 20.9184 4.16089 21.2698 4.54037C21.4054 4.68619 21.576 4.79491 21.7654 4.85618C21.9548 4.91746 22.1568 4.92925 22.352 4.89044C22.8348 4.7965 23.3106 4.66997 23.7762 4.51173C23.4586 5.16157 23.0527 5.76441 22.5701 6.30314Z" fill="white"/>
</svg>
